<svg width="32" height="32" viewBox="0 0 32 32" fill="none" xmlns="http://www.w3.org/2000/svg">
<g clip-path="url(#clip0_183_267)">
<path d="M30.3479 18.3508C31.1687 16.9404 31.7153 15.352 31.9145 13.6587C31.9152 13.6533 31.9157 13.6479 31.9165 13.6426C31.9707 13.1762 31.9995 12.7021 31.9995 12.2214C31.9995 9.04711 30.7827 6.15185 28.7915 3.9768C28.7597 3.93237 28.7224 3.89184 28.6799 3.85693C27.3864 2.4812 25.779 1.40381 23.9726 0.741698C23.9402 0.72705 23.9065 0.714843 23.872 0.706054C22.5915 0.249511 21.2136 0 19.778 0C18.177 0 16.647 0.310058 15.2444 0.872313C15.2063 0.883788 15.1697 0.898924 15.1343 0.917479C13.4097 1.62842 11.8823 2.72314 10.6587 4.09448C10.6186 4.12988 10.583 4.16967 10.553 4.21362C8.68749 6.3601 7.55663 9.16112 7.55663 12.2214C7.55663 12.6802 7.583 13.133 7.63256 13.5788C7.63305 13.5845 7.63378 13.5898 7.63451 13.5952C7.72533 14.4043 7.8955 15.1894 8.13695 15.9431L1.57178 22.5083C1.32764 22.7524 1.32764 23.1482 1.57178 23.3923C1.69385 23.5144 1.85376 23.5754 2.01367 23.5754C2.17358 23.5754 2.33349 23.5144 2.45556 23.3923L8.62694 17.2212C8.79882 17.6028 8.98974 17.9743 9.19848 18.334C9.21752 18.3769 9.24169 18.4172 9.26976 18.4546C10.8191 21.0564 13.3064 23.0368 16.2619 23.9265L11.8591 28.3291C11.6152 28.5732 11.6152 28.969 11.8591 29.2131C11.9812 29.3352 12.1413 29.3962 12.3013 29.3962C12.4612 29.3962 12.6211 29.3352 12.7431 29.2131L17.6921 24.2639C18.3703 24.3811 19.0671 24.4428 19.778 24.4428C24.2299 24.4428 28.133 22.0495 30.2697 18.4824C30.301 18.4419 30.3274 18.3979 30.3479 18.3508ZM24.9402 18.3755L22.7165 14.9536L23.8989 11.3147L26.7092 10.6836L27.4404 10.5195L30.6355 13.8005C30.4414 15.1413 30.0039 16.4045 29.3691 17.5437L24.9402 18.3755ZM16.8398 14.9536L14.6172 18.3738L10.1745 17.5212C9.53807 16.3725 9.10204 15.0981 8.91307 13.7456L12.1123 10.5185L15.6575 11.3147L16.4453 13.7397L16.8398 14.9536ZM10.6809 6.09472L11.2446 9.61839L8.80858 12.0757C8.83764 9.864 9.52343 7.80785 10.6809 6.09472ZM17.9804 14.4192L16.8764 11.0215L19.7666 8.92186L22.6567 11.0217L21.5527 14.4192H17.9804ZM30.7482 12.1247L28.2995 9.61009L28.7324 5.88842C29.9848 7.65429 30.728 9.80467 30.7482 12.1247ZM27.6281 4.56493L27.0749 9.32054L25.7302 9.6223L23.5532 10.1111L20.4145 7.8308V4.44726L23.8066 2.01611C25.257 2.59082 26.5561 3.4663 27.6281 4.56493ZM22.3156 1.54687L19.7517 3.38452L16.8933 1.63574C17.813 1.38476 18.78 1.25 19.778 1.25C20.6513 1.25 21.5009 1.35303 22.3156 1.54687ZM15.3764 2.17285L19.1416 4.47656V7.8308L16.9277 9.43919L16.0032 10.1111L12.4621 9.31615L11.7346 4.76855C12.7514 3.67187 13.989 2.78295 15.3764 2.17285ZM11.1411 18.9795L14.5134 19.6269L16.2309 22.604C14.2019 21.9089 12.4392 20.6347 11.1411 18.9795ZM17.9228 23.0351L15.6448 19.0864L17.8655 15.6692H21.6906L23.9113 19.0864L21.6338 23.0349C21.0302 23.1381 20.4104 23.1926 19.778 23.1926C19.1457 23.1928 18.5261 23.1384 17.9228 23.0351ZM23.3254 22.604L25.042 19.6281L28.4013 18.997C27.1047 20.6438 25.3474 21.9113 23.3254 22.604Z" fill="#CBFE1C"/>
<path d="M8.60765 22.5082L0.183105 30.933C-0.0610351 31.1772 -0.0610351 31.5729 0.183105 31.8171C0.305175 31.9389 0.465087 31.9999 0.624999 31.9999C0.784911 31.9999 0.944823 31.9389 1.06689 31.8168L9.49168 23.3923C9.73558 23.1481 9.73558 22.7524 9.49168 22.5082C9.24755 22.2643 8.85179 22.2643 8.60765 22.5082Z" fill="#CBFE1C"/>
<path d="M10.3838 30.0632C10.2195 30.0632 10.0583 30.1301 9.94214 30.2463C9.82593 30.3625 9.75879 30.5237 9.75879 30.6887C9.75879 30.853 9.82568 31.0137 9.94214 31.1301C10.0583 31.2471 10.2195 31.3137 10.3838 31.3137C10.5483 31.3137 10.7095 31.2471 10.8257 31.1301C10.9419 31.0139 11.0088 30.853 11.0088 30.6887C11.0088 30.5237 10.9421 30.3625 10.8257 30.2463C10.7095 30.1301 10.5483 30.0632 10.3838 30.0632Z" fill="#CBFE1C"/>
</g>
<defs>
<clipPath id="clip0_183_267">
<rect width="32" height="32" fill="white"/>
</clipPath>
</defs>
</svg>
