<svg width="94" height="94" viewBox="0 0 94 94" fill="none" xmlns="http://www.w3.org/2000/svg">
<g clip-path="url(#clip0_196_630)">
<path d="M89.1487 53.9055C91.5598 49.7624 93.1655 45.0966 93.7507 40.1223C93.7528 40.1066 93.7543 40.0908 93.7564 40.075C93.9156 38.7052 94.0003 37.3125 94.0003 35.9004C94.0003 26.5759 90.4259 18.071 84.5768 11.6819C84.4835 11.5513 84.3738 11.4323 84.249 11.3297C80.4495 7.28852 75.7277 4.12368 70.4214 2.17874C70.326 2.13571 70.2271 2.09985 70.1259 2.07403C66.3644 0.73294 62.3168 0 58.0998 0C53.3967 0 48.9022 0.910796 44.7822 2.56242C44.6703 2.59613 44.5627 2.64059 44.4587 2.69509C39.3927 4.78347 34.9061 7.99922 31.3117 12.0275C31.1941 12.1315 31.0894 12.2484 31.0012 12.3775C25.5213 18.6828 22.1994 26.9108 22.1994 35.9004C22.1994 37.248 22.2769 38.5783 22.4225 39.8878C22.4239 39.9043 22.4261 39.9201 22.4282 39.9359C22.695 42.3126 23.1949 44.6189 23.9041 46.8328L4.61893 66.118C3.90176 66.8352 3.90176 67.9977 4.61893 68.7149C4.97751 69.0735 5.44725 69.2527 5.91699 69.2527C6.38673 69.2527 6.85647 69.0735 7.21505 68.7149L25.3435 50.5872C25.8484 51.7081 26.4092 52.7996 27.0224 53.856C27.0783 53.9822 27.1493 54.1005 27.2318 54.2103C31.7829 61.8531 39.0893 67.6707 47.7713 70.284L34.838 83.2166C34.1215 83.9338 34.1215 85.0963 34.838 85.8135C35.1966 86.172 35.667 86.3513 36.1368 86.3513C36.6065 86.3513 37.0762 86.172 37.4348 85.8135L51.9724 71.2751C53.9647 71.6194 56.0115 71.8008 58.0998 71.8008C71.1773 71.8008 82.6426 64.7705 88.9192 54.292C89.011 54.173 89.0884 54.0439 89.1487 53.9055ZM73.2635 53.9779L66.7316 43.9262L70.2048 33.2369L78.4601 31.383L80.608 30.9011L89.9935 40.539C89.4233 44.4777 88.1382 48.1883 86.2736 51.5345L73.2635 53.9779ZM49.4688 43.9262L42.9398 53.9729L29.8896 51.4686C28.0199 48.0943 26.7391 44.3507 26.184 40.3777L35.5817 30.8982L45.9956 33.2369L48.3099 40.3604L49.4688 43.9262ZM31.377 17.9032L33.0329 28.254L25.877 35.4723C25.9624 28.9755 27.9769 22.9356 31.377 17.9032ZM52.8194 42.3563L49.5764 32.3756L58.0661 26.208L66.5559 32.3763L63.3129 42.3563H52.8194ZM90.3248 35.6164L83.1317 28.2296L84.4032 17.2972C88.0822 22.4845 90.2653 28.8012 90.3248 35.6164ZM81.1595 13.4095L79.5344 27.3791L75.5843 28.2655L69.1893 29.7013L59.9695 23.003V13.0638L69.9337 5.92232C74.1944 7.61052 78.0104 10.1823 81.1595 13.4095ZM65.554 4.54394L58.0224 9.94202L49.6259 4.80499C52.3274 4.06774 55.1681 3.67187 58.0998 3.67187C60.6651 3.67187 63.1609 3.97451 65.554 4.54394ZM45.1701 6.38274L56.2302 13.1499V23.003L49.727 27.7276L47.0111 29.7013L36.6094 27.3662L34.4722 14.0076C37.4592 10.7861 41.0945 8.17493 45.1701 6.38274ZM32.7288 55.7522L42.635 57.6541L47.6802 66.3992C41.7199 64.3574 36.542 60.6145 32.7288 55.7522ZM52.6501 67.6657L45.9583 56.0663L52.4816 46.0282H63.7181L70.2414 56.0663L63.551 67.6649C61.7782 67.9683 59.9573 68.1282 58.0998 68.1282C56.2424 68.129 54.4222 67.969 52.6501 67.6657ZM68.5202 66.3992L73.5626 57.6577L83.4307 55.8038C79.6219 60.6411 74.4598 64.3646 68.5202 66.3992Z" fill="#CBFE1C"/>
<path d="M25.285 66.1181L0.537872 90.866C-0.179291 91.5831 -0.179291 92.7457 0.537872 93.4628C0.896452 93.8207 1.36619 94 1.83593 94C2.30568 94 2.77542 93.8207 3.134 93.4621L27.8818 68.715C28.5983 67.9978 28.5983 66.8353 27.8818 66.1181C27.1647 65.4017 26.0021 65.4017 25.285 66.1181Z" fill="#CBFE1C"/>
<path d="M30.5039 88.3108C30.0213 88.3108 29.5479 88.5073 29.2066 88.8487C28.8652 89.19 28.668 89.6634 28.668 90.1482C28.668 90.6308 28.8645 91.1027 29.2066 91.4448C29.5479 91.7883 30.0213 91.9841 30.5039 91.9841C30.9873 91.9841 31.4606 91.7883 31.802 91.4448C32.1433 91.1034 32.3398 90.6308 32.3398 90.1482C32.3398 89.6634 32.1441 89.19 31.802 88.8487C31.4606 88.5073 30.9873 88.3108 30.5039 88.3108Z" fill="#CBFE1C"/>
</g>
<defs>
<clipPath id="clip0_196_630">
<rect width="94" height="94" fill="white"/>
</clipPath>
</defs>
</svg>
