<svg width="100" height="100" viewBox="0 0 100 100" fill="none" xmlns="http://www.w3.org/2000/svg">
<path fill-rule="evenodd" clip-rule="evenodd" d="M56.6618 57.3092C55.0461 57.8305 53.3475 58.1672 51.5908 58.2948V81.8182H56.6618V57.3092ZM59.8436 85H56.6618H51.5908H48.409H43.3381H40.156H35.0848H31.9031H16.3916V81.8182H31.9031V48.6123C29.6406 45.1893 28.3236 41.0865 28.3236 36.6763C28.3236 24.7047 38.0281 15 49.9995 15C61.9711 15 71.6758 24.7047 71.6758 36.6763C71.6758 41.0863 70.3588 45.1888 68.0965 48.6118V81.8182H83.6076V85H68.0965H64.9146H59.8436ZM64.9146 81.8182H59.8436V55.9933C61.7058 55.0423 63.4123 53.8302 64.9146 52.405V81.8182ZM35.0848 81.8182H40.156V55.9935C38.2938 55.0428 36.5873 53.8305 35.0848 52.4052V81.8182ZM43.3381 81.8182H48.409V58.2948C46.6523 58.1675 44.9538 57.8307 43.3381 57.3095V81.8182Z" fill="white"/>
</svg>
