<svg width="100" height="100" viewBox="0 0 100 100" fill="none" xmlns="http://www.w3.org/2000/svg">
<path fill-rule="evenodd" clip-rule="evenodd" d="M71.7306 16.1138C70.5698 14.3901 68.0496 13.2926 66.1593 13.7269C63.4816 14.3396 61.8723 16.3057 61.7456 19.1236C61.6668 20.7766 62.0366 22.3286 62.4508 23.8301C62.2488 23.7829 62.0538 23.7459 61.8791 23.7156C58.3111 23.0961 54.5203 22.7427 50.6133 22.6551C49.9763 22.6417 49.3393 22.6349 48.7026 22.6349C44.5456 22.6349 41.1451 22.9783 37.9983 23.7156C37.8751 23.7459 37.7141 23.7829 37.5463 23.8368C37.7861 22.9817 38.0223 22.1064 38.1558 21.1974C38.5153 18.834 38.0908 16.9454 36.8613 15.4271C35.9506 14.3026 34.5398 13.6562 32.9851 13.6562C31.1258 13.6562 29.3793 14.5484 28.3213 16.0398C26.7976 18.1843 26.0716 20.7496 26.1676 23.6685C26.2806 27.2471 26.6881 30.4353 27.4071 33.4113C28.5303 38.0506 29.9581 42.7841 31.6463 47.4803C32.0811 48.6856 32.4956 49.9008 32.9098 51.1128C33.2626 52.1498 33.6153 53.1833 33.9816 54.2168L35.3651 58.1121V58.0886C36.4333 61.3406 37.8818 64.6803 39.5563 66.8483C39.8406 67.2153 40.1418 67.5688 40.4466 67.9256C41.1793 68.7876 41.8711 69.5988 42.2341 70.5651C42.4396 71.1003 42.8881 72.2956 44.0353 72.9083C43.9463 73.3021 43.8058 73.5008 43.2341 73.6388C42.5251 73.8106 41.8198 73.9721 41.1076 74.1303C39.0633 74.5746 37.4813 75.8943 36.2656 78.1701C35.2316 80.1061 35.8616 82.4221 37.7621 83.6778C38.5668 84.2066 39.4606 84.6306 40.4911 84.9741C43.2956 85.9133 46.2918 86.3678 49.6546 86.3678C51.2673 86.3678 52.9623 86.2636 54.8423 86.0513C57.7048 85.7281 60.0573 84.9876 62.0331 83.7891C64.1973 82.4793 64.8651 80.0993 63.6596 77.9951C62.8481 76.5743 61.4511 74.6218 58.7186 74.0831C58.1706 73.9753 57.6296 73.8306 57.0886 73.6826L56.3318 73.4806C56.2051 73.4503 56.1401 73.4066 55.9791 72.9048C56.0236 72.8813 56.0681 72.8578 56.1126 72.8308C56.5133 72.6018 56.7221 72.2753 56.8523 72.0328C57.5748 71.3831 57.9583 70.6056 58.3008 69.9086C58.5166 69.4811 58.7151 69.0771 59.0336 68.6898C60.7081 66.6566 62.4441 64.5491 63.5913 61.9501C64.9198 58.9471 65.8581 55.7453 66.3306 53.1868C67.7106 49.4598 69.0838 45.4166 70.5218 40.8246C72.5046 34.4921 73.5181 29.5331 73.8058 24.7491C74.0113 21.3186 73.3333 18.494 71.7306 16.1138ZM63.9678 29.0623C64.2348 29.0623 64.4746 28.9446 64.6836 28.7088C65.7416 27.5206 65.5328 26.0123 65.3648 24.8036L65.2998 24.3357C65.2108 23.5883 65.0636 22.8477 64.9163 22.107C64.7553 21.3159 64.6048 20.5651 64.5226 19.8043C64.3788 18.424 64.8308 17.5116 65.8718 17.0908C66.7996 16.7171 67.9913 17.1177 68.8406 18.0839C70.3506 19.8076 70.5868 21.9589 70.6211 24.0293C70.6863 28.4296 69.9158 32.9913 68.2071 38.3913C68.0701 38.8153 67.9228 39.2363 67.7858 39.6571L67.8406 38.8996C67.9161 37.9031 67.9913 36.9066 68.0803 35.9133C68.1453 35.2098 67.9638 34.2536 66.7448 33.6916C65.6833 33.1998 64.6356 32.6546 63.6288 32.0653C63.2418 31.8398 62.9371 31.5908 62.7283 31.1901C63.2248 30.6111 63.6048 29.8098 63.8823 29.0488C63.9131 29.0523 63.9371 29.0623 63.9678 29.0623ZM35.1138 22.0085C34.9426 22.7122 34.7646 23.436 34.6891 24.1968C34.6138 25.0148 34.5863 25.8801 34.6071 26.9203C34.6241 27.7823 34.8808 28.4083 35.3638 28.7788C35.5726 28.9371 35.7918 29.0178 36.0143 29.0178C36.0348 29.0178 36.0451 29.0111 36.0623 29.0111C36.3226 29.8191 36.6958 30.7178 37.1856 31.3676C37.0143 31.6001 36.7541 31.8491 36.3396 32.0848L36.0658 32.2396C35.1753 32.7481 34.3296 33.2261 33.4563 33.5896C31.7923 34.2798 31.9053 35.7038 31.9428 36.1718L32.0388 37.4478C32.0971 38.1851 32.1553 38.9358 32.2168 39.6831C31.3676 37.0706 30.5971 34.4111 30.1178 31.7076C29.4466 27.8968 28.9571 24.4561 29.7718 20.9481C30.1521 19.3153 30.8061 18.2144 31.8333 17.4839C32.6586 16.8981 33.4563 16.787 34.2543 17.1573C35.0863 17.5445 35.4903 18.2279 35.5246 19.3052C35.5556 20.2041 35.3398 21.0827 35.1138 22.0085Z" fill="white"/>
</svg>
