<svg width="100" height="100" viewBox="0 0 100 100" fill="none" xmlns="http://www.w3.org/2000/svg">
<path fill-rule="evenodd" clip-rule="evenodd" d="M52.8748 48.0734C58.2553 48.0734 63.2097 39.2276 63.2097 39.2276C69.2485 39.2276 73.75 31.7264 73.75 9.66992H63.0005V14.6659L62.635 14.9534C62.635 14.9534 55.0057 13.542 50.002 13.542C44.9942 13.542 37.3688 14.9534 37.3688 14.9534L37.0035 14.6659V9.66992H26.25C26.25 31.7264 30.7515 39.2276 36.7943 39.2276C36.7943 39.2276 41.7448 48.0734 47.129 48.0734V51.3031C47.129 51.3031 47.578 52.9386 47.578 54.7346C47.578 60.8621 35.1238 65.8769 35.1238 68.6809C35.1238 71.4889 35.1238 80.6519 35.1238 80.6519C35.1238 80.6519 32.7225 81.0254 32.7225 83.9826C32.7225 86.9399 40.6982 90.3304 50.002 90.3304C59.3055 90.3304 67.2775 86.9399 67.2775 83.9826C67.2775 81.0254 64.8763 80.6519 64.8763 80.6519C64.8763 80.6519 64.8763 71.4889 64.8763 68.6809C64.8763 65.8769 52.422 60.8621 52.422 54.7346C52.422 52.9386 52.8748 51.3031 52.8748 51.3031V48.0734ZM63.2085 17.4622L63.2542 17.4696L64.4605 16.525L65.3698 15.8155V12.033H71.3592C71.1042 28.0666 68.235 36.8561 63.2085 36.8599V17.4622ZM36.791 36.8599C31.7643 36.8561 28.8953 28.0666 28.6403 12.033H34.6295V15.8155L35.539 16.525L35.9043 16.8087L36.7453 17.4696L36.791 17.4622V36.8599Z" fill="white"/>
</svg>
