<svg width="100" height="100" viewBox="0 0 100 100" fill="none" xmlns="http://www.w3.org/2000/svg">
<path fill-rule="evenodd" clip-rule="evenodd" d="M50 89.7058C41.7185 89.7058 35 88.0403 35 86.8751C35 86.7978 35.033 86.7243 35.092 86.6471L39.4828 75.5086C39.4828 75.2621 39.9168 75.0268 40.6815 74.8248C42.5423 70.4318 52.4785 44.2356 36.3055 19.0394L37.405 17.9182C37.405 17.9182 38.6333 19.5504 40.1963 22.6053C40.0565 21.9289 39.9828 21.2267 39.9828 20.5062C39.9828 14.867 44.4655 10.2939 49.9853 10.2939C55.0123 10.2939 59.1788 14.0877 59.881 19.0284L59.9325 19.0652C60.0687 18.7821 60.1458 18.6351 60.1458 18.6351L61.6425 17.1095C63.0032 17.8263 63.5033 19.01 63.5033 19.01C46.5395 46.2906 57.5938 70.4281 60.0173 75.0563C60.3408 75.1996 60.5173 75.3503 60.5173 75.5086L64.9118 86.6471C64.967 86.7243 65 86.7978 65 86.8751C65 88.0403 58.285 89.7058 50 89.7058ZM49.4128 30.7091C46.4525 30.5363 43.8378 29.0511 42.1133 26.8123C46.0075 36.3703 49.8025 53.1188 42.4 74.4918C43.7715 74.2896 45.544 74.1426 47.5335 74.0763C48.405 68.6283 49.9385 55.2546 49.4128 30.7091Z" fill="white"/>
</svg>
