<svg width="60" height="60" viewBox="0 0 60 60" fill="none" xmlns="http://www.w3.org/2000/svg">
<g clip-path="url(#clip0_213_270)">
<path d="M56.903 34.4078C58.442 31.7633 59.4669 28.7851 59.8404 25.61C59.8418 25.5999 59.8427 25.5899 59.8441 25.5798C59.9457 24.7055 59.9997 23.8165 59.9997 22.9152C59.9997 16.9633 57.7182 11.5347 53.9847 7.4565C53.9252 7.37319 53.8552 7.2972 53.7755 7.23174C51.3503 4.65225 48.3364 2.63214 44.9494 1.39068C44.8885 1.36322 44.8253 1.34033 44.7608 1.32385C42.3598 0.467834 39.7762 0 37.0846 0C34.0826 0 31.2138 0.581359 28.5839 1.63559C28.5125 1.6571 28.4438 1.68548 28.3775 1.72027C25.1438 3.05328 22.2801 5.10589 19.9858 7.67714C19.9107 7.74352 19.8438 7.81813 19.7875 7.90053C16.2898 11.9252 14.1694 17.1771 14.1694 22.9152C14.1694 23.7753 14.2189 24.6244 14.3118 25.4603C14.3127 25.4708 14.3141 25.4809 14.3154 25.491C14.4857 27.008 14.8048 28.4802 15.2575 29.8933L2.94781 42.203C2.49005 42.6608 2.49005 43.4028 2.94781 43.8606C3.1767 44.0894 3.47653 44.2039 3.77637 44.2039C4.0762 44.2039 4.37603 44.0894 4.60492 43.8606L16.1762 32.2897C16.4985 33.0052 16.8565 33.7019 17.2479 34.3762C17.2836 34.4567 17.3289 34.5323 17.3815 34.6023C20.2865 39.4807 24.9502 43.1941 30.4919 44.8621L22.2366 53.117C21.7793 53.5747 21.7793 54.3168 22.2366 54.7745C22.4655 55.0034 22.7657 55.1179 23.0656 55.1179C23.3654 55.1179 23.6653 55.0034 23.8941 54.7745L33.1734 45.4948C34.4451 45.7145 35.7516 45.8303 37.0846 45.8303C45.4319 45.8303 52.7501 41.3429 56.7565 34.6545C56.8151 34.5785 56.8645 34.4961 56.903 34.4078ZM46.7635 34.454L42.5942 28.038L44.8112 21.215L50.0805 20.0317L51.4515 19.7241L57.4422 25.876C57.0783 28.39 56.258 30.7585 55.0678 32.8944L46.7635 34.454ZM31.5754 28.038L27.4079 34.4508L19.078 32.8523C17.8846 30.6985 17.0671 28.309 16.7127 25.773L22.7113 19.7223L29.3584 21.215L30.8357 25.762L31.5754 28.038ZM20.0274 11.4276L21.0844 18.0345L16.5168 22.6419C16.5713 18.495 17.8572 14.6397 20.0274 11.4276ZM33.7141 27.0359L31.6441 20.6653L37.0631 16.7285L42.4821 20.6657L40.4121 27.0359H33.7141ZM57.6537 22.7339L53.0623 18.0189L53.8739 11.0408C56.2223 14.3518 57.6157 18.3838 57.6537 22.7339ZM51.8035 8.55925L50.7662 17.476L48.2448 18.0418L44.163 18.9583L38.278 14.6827V8.33861L44.6381 3.78021C47.3577 4.85778 49.7934 6.49932 51.8035 8.55925ZM41.8426 2.90039L37.0351 6.34597L31.6756 3.06701C33.4 2.59643 35.2132 2.34375 37.0846 2.34375C38.722 2.34375 40.315 2.53692 41.8426 2.90039ZM28.8316 4.07409L35.8912 8.39354V14.6827L31.7402 17.6985L30.0066 18.9583L23.3672 17.4678L22.0031 8.94103C23.9097 6.88476 26.2301 5.21804 28.8316 4.07409ZM20.8903 35.5865L27.2134 36.8005L30.4337 42.3824C26.6293 41.0792 23.3242 38.6901 20.8903 35.5865ZM33.606 43.1909L29.3346 35.787L33.4985 29.3797H40.6707L44.8345 35.787L40.564 43.1904C39.4324 43.384 38.2702 43.4861 37.0846 43.4861C35.899 43.4866 34.7372 43.3845 33.606 43.1909ZM43.7359 42.3824L46.9544 36.8028L53.2532 35.6195C50.822 38.7071 47.5271 41.0838 43.7359 42.3824Z" fill="white"/>
<path d="M16.1394 42.2028L0.343322 57.9993C-0.114441 58.4571 -0.114441 59.1991 0.343322 59.6569C0.572204 59.8853 0.872038 59.9998 1.17187 59.9998C1.47171 59.9998 1.77154 59.8853 2.00042 59.6564L17.7969 43.8604C18.2542 43.4026 18.2542 42.6606 17.7969 42.2028C17.3391 41.7455 16.5971 41.7455 16.1394 42.2028Z" fill="white"/>
<path d="M19.4707 56.3687C19.1626 56.3687 18.8605 56.4941 18.6426 56.712C18.4247 56.9299 18.2988 57.232 18.2988 57.5414C18.2988 57.8495 18.4243 58.1507 18.6426 58.3691C18.8605 58.5883 19.1626 58.7133 19.4707 58.7133C19.7792 58.7133 20.0814 58.5883 20.2993 58.3691C20.5171 58.1512 20.6426 57.8495 20.6426 57.5414C20.6426 57.232 20.5176 56.9299 20.2993 56.712C20.0814 56.4941 19.7792 56.3687 19.4707 56.3687Z" fill="white"/>
</g>
<defs>
<clipPath id="clip0_213_270">
<rect width="60" height="60" fill="white"/>
</clipPath>
</defs>
</svg>
