<svg width="30" height="30" viewBox="0 0 30 30" fill="none" xmlns="http://www.w3.org/2000/svg">
<g clip-path="url(#clip0_213_224)">
<path d="M22.7822 9.91642C22.5542 9.68674 22.1833 9.68521 21.9535 9.91308C21.7238 10.141 21.7223 10.512 21.9502 10.7418L21.9538 10.7454C22.0678 10.8604 22.2174 10.9177 22.3671 10.9177C22.5164 10.9177 22.6659 10.8607 22.7806 10.7469C23.0104 10.5189 23.0101 10.1462 22.7822 9.91642Z" fill="#797979"/>
<path d="M29.8287 16.9627L24.3866 11.5206C24.1578 11.2919 23.7868 11.2919 23.5579 11.5206C23.3291 11.7495 23.3291 12.1205 23.5579 12.3493L27.8782 16.6695H17.5759C16.7213 16.6695 16.0261 15.9742 16.0261 15.1196V4.81746L20.1969 8.98828C20.4257 9.21703 20.7968 9.21703 21.0256 8.98828C21.2544 8.75947 21.2544 8.38846 21.0256 8.15959L15.7329 2.86688C15.504 2.63812 15.133 2.63812 14.9042 2.86688L5.56321 12.2081C5.3344 12.4369 5.3344 12.8079 5.56321 13.0368L19.659 27.1325C19.7689 27.2424 19.918 27.3042 20.0734 27.3042C20.2288 27.3042 20.3778 27.2424 20.4877 27.1325L29.8288 17.7914C29.9386 17.6815 30.0004 17.5325 30.0004 17.3771C30.0003 17.2217 29.9386 17.0726 29.8287 16.9627ZM14.8543 4.57424V12.0365H7.39204L14.8543 4.57424ZM19.4874 25.3036L7.39204 13.2083H14.8543V15.1196C14.8543 16.6204 16.0753 17.8414 17.576 17.8414H19.4874V25.3036ZM20.6592 25.3037V17.8414H28.1214L20.6592 25.3037Z" fill="#797979"/>
<path d="M4.02135 14.8828H0.585937C0.262324 14.8828 0 15.1452 0 15.4688C0 15.7923 0.262324 16.0547 0.585937 16.0547H4.02135C4.34496 16.0547 4.60728 15.7924 4.60728 15.4688C4.60728 15.1452 4.34496 14.8828 4.02135 14.8828Z" fill="#797979"/>
<path d="M5.76855 14.8828H5.75977C5.43615 14.8828 5.17383 15.1452 5.17383 15.4688C5.17383 15.7923 5.43615 16.0547 5.75977 16.0547H5.76855C6.09217 16.0547 6.35449 15.7923 6.35449 15.4688C6.35449 15.1452 6.09217 14.8828 5.76855 14.8828Z" fill="#797979"/>
<path d="M2.46209 8.73047H0.586914C0.263301 8.73047 0.000976562 8.99285 0.000976562 9.31641C0.000976562 9.63996 0.263301 9.90234 0.586914 9.90234H2.46209C2.7857 9.90234 3.04803 9.63996 3.04803 9.31641C3.04803 8.99285 2.7857 8.73047 2.46209 8.73047Z" fill="#797979"/>
<path d="M6.59246 8.73047H4.37598C4.05236 8.73047 3.79004 8.99285 3.79004 9.31641C3.79004 9.63996 4.05236 9.90234 4.37598 9.90234H6.59246C6.91607 9.90234 7.1784 9.63996 7.1784 9.31641C7.1784 8.99285 6.91607 8.73047 6.59246 8.73047Z" fill="#797979"/>
<path d="M7.86811 18.1055H4.58691C4.2633 18.1055 4.00098 18.3679 4.00098 18.6914C4.00098 19.015 4.2633 19.2773 4.58691 19.2773H7.86811C8.19172 19.2773 8.45404 19.015 8.45404 18.6914C8.45404 18.3679 8.19166 18.1055 7.86811 18.1055Z" fill="#797979"/>
<path d="M10.4306 21.8555H2.16895C1.84533 21.8555 1.58301 22.1179 1.58301 22.4414C1.58301 22.765 1.84533 23.0273 2.16895 23.0273H10.4306C10.7542 23.0273 11.0165 22.765 11.0165 22.4414C11.0165 22.1179 10.7542 21.8555 10.4306 21.8555Z" fill="#797979"/>
</g>
<defs>
<clipPath id="clip0_213_224">
<rect width="30" height="30" fill="white"/>
</clipPath>
</defs>
</svg>
