<svg width="58" height="58" viewBox="0 0 58 58" fill="none" xmlns="http://www.w3.org/2000/svg">
<g clip-path="url(#clip0_189_428)">
<path d="M55.0061 33.2609C56.4938 30.7045 57.4846 27.8256 57.8457 24.7564C57.847 24.7467 57.8479 24.7369 57.8492 24.7272C57.9474 23.882 57.9996 23.0227 57.9996 22.1514C57.9996 16.3979 55.7942 11.1503 52.1851 7.208C52.1276 7.12746 52.0599 7.05401 51.9829 6.99073C49.6385 4.49722 46.7251 2.54445 43.451 1.34437C43.3921 1.31782 43.3311 1.2957 43.2687 1.27977C40.9477 0.452285 38.4502 4.57764e-05 35.8483 4.57764e-05C32.9464 4.57764e-05 30.1732 0.562026 27.631 1.58111C27.562 1.60191 27.4956 1.62935 27.4315 1.66298C24.3056 2.95155 21.5373 4.93574 19.3195 7.42128C19.2469 7.48545 19.1823 7.55758 19.1279 7.63723C15.7467 11.5277 13.697 16.6046 13.697 22.1514C13.697 22.9828 13.7448 23.8037 13.8346 24.6117C13.8355 24.6219 13.8368 24.6316 13.8382 24.6413C14.0028 26.1078 14.3112 27.5309 14.7488 28.8969L2.84946 40.7963C2.40695 41.2388 2.40695 41.9561 2.84946 42.3986C3.07071 42.6198 3.36055 42.7305 3.65039 42.7305C3.94023 42.7305 4.23007 42.6198 4.45132 42.3986L15.6369 31.2134C15.9485 31.905 16.2945 32.5785 16.6728 33.2303C16.7074 33.3082 16.7512 33.3812 16.8021 33.4489C19.6102 38.1647 24.1184 41.7543 29.4754 43.3668L21.4953 51.3465C21.0532 51.789 21.0532 52.5063 21.4953 52.9488C21.7165 53.17 22.0068 53.2807 22.2966 53.2807C22.5865 53.2807 22.8763 53.17 23.0976 52.9488L32.0676 43.9783C33.2968 44.1907 34.5598 44.3027 35.8483 44.3027C43.9174 44.3027 50.9917 39.9648 54.8645 33.4994C54.9211 33.4259 54.9689 33.3463 55.0061 33.2609ZM45.2046 33.3056L41.1743 27.1034L43.3174 20.5079L48.411 19.364L49.7363 19.0667L55.5274 25.0135C55.1756 27.4437 54.3826 29.7332 53.2321 31.798L45.2046 33.3056ZM30.5228 27.1034L26.4942 33.3025L18.442 31.7572C17.2884 29.6753 16.4981 27.3654 16.1556 24.9139L21.9541 19.0649L28.3797 20.5079L29.8077 24.9033L30.5228 27.1034ZM19.3597 11.0467L20.3815 17.4334L15.9662 21.8872C16.0188 17.8785 17.2618 14.1518 19.3597 11.0467ZM32.5902 26.1348L30.5892 19.9765L35.8275 16.1709L41.0659 19.9769L39.0649 26.1348H32.5902ZM55.7318 21.9761L51.2935 17.4183L52.0781 10.6728C54.3481 13.8734 55.6951 17.771 55.7318 21.9761ZM50.0766 8.27399L49.0739 16.8935L46.6366 17.4405L42.6908 18.3264L37.0019 14.1934V8.0607L43.1501 3.65425C45.779 4.6959 48.1336 6.28272 50.0766 8.27399ZM40.4477 2.80375L35.8005 6.13448L30.6197 2.96482C32.2866 2.50993 34.0394 2.26567 35.8483 2.26567C37.4312 2.26567 38.9711 2.4524 40.4477 2.80375ZM27.8704 3.93833L34.6947 8.1138V14.1934L30.6821 17.1086L29.0063 18.3264L22.5882 16.8856L21.2696 8.64304C23.1126 6.65531 25.3557 5.04415 27.8704 3.93833ZM20.1939 34.4003L26.3062 35.5738L29.4192 40.9697C25.7415 39.7099 22.5466 37.4005 20.1939 34.4003ZM32.4857 41.7512L28.3567 34.5941L32.3817 28.4004H39.3149L43.3399 34.5941L39.2118 41.7508C38.1179 41.9379 36.9944 42.0366 35.8483 42.0366C34.7022 42.0371 33.5792 41.9384 32.4857 41.7512ZM42.2779 40.9697L45.3892 35.5761L51.478 34.4322C49.1279 37.4169 45.9427 39.7144 42.2779 40.9697Z" fill="#CBFE1C"/>
<path d="M15.6014 40.7963L0.331878 56.0662C-0.110626 56.5087 -0.110626 57.226 0.331878 57.6685C0.55313 57.8893 0.84297 57.9999 1.13281 57.9999C1.42265 57.9999 1.71249 57.8893 1.93374 57.6681L17.2037 42.3986C17.6457 41.9561 17.6457 41.2388 17.2037 40.7963C16.7612 40.3542 16.0439 40.3542 15.6014 40.7963Z" fill="#CBFE1C"/>
<path d="M18.8213 54.4896C18.5235 54.4896 18.2314 54.6108 18.0208 54.8214C17.8102 55.0321 17.6885 55.3241 17.6885 55.6233C17.6885 55.9211 17.8097 56.2122 18.0208 56.4233C18.2314 56.6353 18.5235 56.7561 18.8213 56.7561C19.1195 56.7561 19.4116 56.6353 19.6222 56.4233C19.8329 56.2127 19.9541 55.9211 19.9541 55.6233C19.9541 55.3241 19.8333 55.0321 19.6222 54.8214C19.4116 54.6108 19.1195 54.4896 18.8213 54.4896Z" fill="#CBFE1C"/>
</g>
<defs>
<clipPath id="clip0_189_428">
<rect width="58" height="58" fill="white"/>
</clipPath>
</defs>
</svg>
