<svg width="48" height="48" viewBox="0 0 48 48" fill="none" xmlns="http://www.w3.org/2000/svg">
<path d="M45.2632 12.3781H6.19312V9.38037C6.19312 8.96618 5.85731 8.63037 5.44313 8.63037H0.75C0.335812 8.63037 0 8.96618 0 9.38037C0 9.79456 0.335812 10.1304 0.75 10.1304H4.69313V15.436H2.93878C2.52459 15.436 2.18878 15.7718 2.18878 16.186V22.157C2.18878 22.5712 2.52459 22.907 2.93878 22.907H4.69313V24.7079H2.93878C2.52459 24.7079 2.18878 25.0437 2.18878 25.4579V31.429C2.18878 31.8432 2.52459 32.179 2.93878 32.179H4.69313V38.6195C4.69313 39.0337 5.02894 39.3695 5.44313 39.3695C5.85731 39.3695 6.19312 39.0337 6.19312 38.6195V35.2369H9.08081V38.2845C9.08081 38.6987 9.41663 39.0345 9.83081 39.0345H20.2926C20.7067 39.0345 21.0426 38.6987 21.0426 38.2845V35.2369H23.5163V38.2845C23.5163 38.6987 23.8522 39.0345 24.2663 39.0345H42.8624C43.2766 39.0345 43.6124 38.6987 43.6124 38.2845V35.2369H45.2632C46.7723 35.2369 48 34.0092 48 32.5001V15.1151C48 13.6059 46.7723 12.3781 45.2632 12.3781ZM3.68878 21.4071V16.936H4.69313V21.407H3.68878V21.4071ZM3.68878 30.6791V26.208H4.69313V30.6791H3.68878ZM19.5426 37.5345H17.5553V36.5874C17.5553 36.1732 17.2194 35.8374 16.8053 35.8374C16.3911 35.8374 16.0553 36.1732 16.0553 36.5874V37.5345H14.068V36.5874C14.068 36.1732 13.7322 35.8374 13.318 35.8374C12.9038 35.8374 12.568 36.1732 12.568 36.5874V37.5345H10.5808V35.2369H19.5426V37.5345ZM42.1124 37.5345H40.5128V36.5874C40.5128 36.1732 40.177 35.8374 39.7628 35.8374C39.3487 35.8374 39.0128 36.1732 39.0128 36.5874V37.5345H37.4136V36.5874C37.4136 36.1732 37.0778 35.8374 36.6636 35.8374C36.2494 35.8374 35.9136 36.1732 35.9136 36.5874V37.5345H34.3142V36.5874C34.3142 36.1732 33.9784 35.8374 33.5642 35.8374C33.15 35.8374 32.8142 36.1732 32.8142 36.5874V37.5345H31.2149V36.5874C31.2149 36.1732 30.8791 35.8374 30.4649 35.8374C30.0507 35.8374 29.7149 36.1732 29.7149 36.5874V37.5345H28.1156V36.5874C28.1156 36.1732 27.7798 35.8374 27.3656 35.8374C26.9514 35.8374 26.6156 36.1732 26.6156 36.5874V37.5345H25.0163V35.2369H42.1123V37.5345H42.1124ZM46.5 32.5001C46.5 33.182 45.9452 33.7369 45.2632 33.7369H6.19312V31.43C6.19312 31.4297 6.19312 31.4293 6.19312 31.4291C6.19312 31.4288 6.19312 31.4285 6.19312 31.4281V25.4589C6.19312 25.4586 6.19312 25.4582 6.19312 25.4579C6.19312 25.4577 6.19312 25.4574 6.19312 25.457V22.1579C6.19312 22.1577 6.19312 22.1573 6.19312 22.157C6.19312 22.1567 6.19312 22.1564 6.19312 22.1561V16.1869C6.19312 16.1866 6.19312 16.1862 6.19312 16.186C6.19312 16.1857 6.19312 16.1854 6.19312 16.185V13.8781H45.2632C45.9452 13.8781 46.5 14.433 46.5 15.115V32.5001ZM36.0947 15.1092C31.2984 15.1092 27.3964 19.0112 27.3964 23.8075C27.3964 28.6037 31.2984 32.5057 36.0947 32.5057C40.8909 32.5057 44.7929 28.6037 44.7929 23.8075C44.7929 19.0112 40.8909 15.1092 36.0947 15.1092ZM32.1742 29.8398C33.8062 29.3502 35.2133 28.2303 36.0446 26.7203C36.0613 26.7206 36.0779 26.7216 36.0947 26.7216C36.324 26.7216 36.5468 26.6941 36.761 26.6438C37.0941 28.1667 36.7007 29.7929 35.6813 30.993C34.3928 30.9197 33.1947 30.5052 32.1742 29.8398ZM29.0524 25.297C30.0162 25.817 31.0981 26.0889 32.1884 26.0889C32.7967 26.0889 33.4074 26.0037 34.0013 25.8314C34.1682 26.004 34.3559 26.1562 34.5608 26.2836C33.7203 27.5951 32.294 28.4666 30.7262 28.5957C29.9052 27.6763 29.3163 26.5462 29.0524 25.297ZM40.0152 17.7753C38.3832 18.265 36.9761 19.3848 36.1448 20.8948C36.1281 20.8946 36.1115 20.8935 36.0947 20.8935C35.8654 20.8935 35.6425 20.921 35.4284 20.9712C35.0953 19.4483 35.4888 17.822 36.5081 16.6219C37.7967 16.6953 38.9948 17.1098 40.0152 17.7753ZM36.0947 25.2215C35.315 25.2215 34.6807 24.5871 34.6807 23.8075C34.6807 23.0278 35.315 22.3935 36.0947 22.3935C36.8743 22.3935 37.5087 23.0278 37.5087 23.8075C37.5087 24.5871 36.8744 25.2215 36.0947 25.2215ZM34.0708 21.7139C33.8982 21.8809 33.746 22.0687 33.6186 22.2735C32.3071 21.433 31.4356 20.0067 31.3064 18.4388C32.2254 17.6183 33.3551 17.0295 34.6037 16.7654C33.7939 18.267 33.59 20.0562 34.0708 21.7139ZM33.182 23.7576C33.1817 23.7743 33.1807 23.7908 33.1807 23.8076C33.1807 24.0369 33.2081 24.2597 33.2585 24.4739C31.7355 24.8069 30.1092 24.4135 28.9091 23.3942C28.9824 22.1056 29.3969 20.9076 30.0624 19.887C30.5521 21.5189 31.6719 22.9261 33.182 23.7576ZM38.1186 25.9011C38.2912 25.7341 38.4434 25.5464 38.5708 25.3415C39.8823 26.1821 40.7538 27.6084 40.8829 29.1762C39.9638 29.9967 38.8342 30.5855 37.5857 30.8496C38.3955 29.348 38.5994 27.5587 38.1186 25.9011ZM39.0074 23.8575C39.0077 23.8408 39.0087 23.8242 39.0087 23.8075C39.0087 23.5782 38.9813 23.3554 38.931 23.1413C40.454 22.8083 42.0802 23.2017 43.2803 24.221C43.2069 25.5095 42.7925 26.7076 42.1269 27.7281C41.6373 26.0961 40.5174 24.689 39.0074 23.8575ZM38.1883 21.7838C38.0213 21.6111 37.8336 21.4589 37.6287 21.3315C38.4693 20.0201 39.8956 19.1485 41.4635 19.0194C42.284 19.9384 42.8727 21.0681 43.1368 22.3167C41.6352 21.5067 39.8459 21.3028 38.1883 21.7838ZM16.5985 15.1092C11.8023 15.1092 7.90031 19.0112 7.90031 23.8075C7.90031 28.6037 11.8024 32.5057 16.5985 32.5057C21.3947 32.5057 25.2967 28.6037 25.2967 23.8075C25.2967 19.0112 21.3947 15.1092 16.5985 15.1092ZM12.6781 29.8397C14.31 29.3501 15.7171 28.2302 16.5485 26.7202C16.5652 26.7205 16.5817 26.7215 16.5985 26.7215C16.8278 26.7215 17.0507 26.694 17.2648 26.6438C17.5979 28.1667 17.2045 29.7929 16.1852 30.993C14.8966 30.9197 13.6986 30.5052 12.6781 29.8397ZM9.55622 25.2971C10.5201 25.8171 11.6019 26.0889 12.6922 26.0889C13.3005 26.0889 13.9112 26.0037 14.505 25.8314C14.6719 26.004 14.8597 26.1562 15.0645 26.2836C14.2239 27.5951 12.7976 28.4666 11.2298 28.5957C10.4091 27.6763 9.82012 26.5462 9.55622 25.2971ZM20.5191 17.7753C18.8871 18.265 17.48 19.3848 16.6485 20.8948C16.6318 20.8946 16.6152 20.8935 16.5984 20.8935C16.3692 20.8935 16.1463 20.921 15.9323 20.9712C15.5992 19.4483 15.9926 17.822 17.012 16.6219C18.3005 16.6953 19.4985 17.1098 20.5191 17.7753ZM16.5984 25.2215C15.8188 25.2215 15.1844 24.5871 15.1844 23.8075C15.1844 23.0278 15.8187 22.3935 16.5984 22.3935C17.3782 22.3935 18.0125 23.0278 18.0125 23.8075C18.0125 24.5871 17.3782 25.2215 16.5984 25.2215ZM14.5747 21.7139C14.402 21.8809 14.2498 22.0687 14.1224 22.2736C12.811 21.4331 11.9394 20.0067 11.8103 18.4389C12.7294 17.6184 13.8591 17.0296 15.1076 16.7655C14.2977 18.267 14.0938 20.0562 14.5747 21.7139ZM13.6857 23.7576C13.6854 23.7743 13.6845 23.7908 13.6845 23.8076C13.6845 24.0369 13.712 24.2597 13.7623 24.4739C12.2393 24.8069 10.6132 24.4135 9.41306 23.3943C9.48637 22.1057 9.90084 20.9076 10.5664 19.8871C11.0559 21.519 12.1757 22.9261 13.6857 23.7576ZM18.6223 25.9011C18.7949 25.7341 18.9472 25.5463 19.0746 25.3415C20.386 26.1821 21.2575 27.6084 21.3867 29.1762C20.4677 29.9967 19.338 30.5855 18.0894 30.8496C18.8993 29.348 19.1032 27.5587 18.6223 25.9011ZM19.5112 23.8575C19.5114 23.8408 19.5125 23.8243 19.5125 23.8076C19.5125 23.5783 19.485 23.3555 19.4347 23.1414C20.9577 22.8084 22.584 23.2018 23.7841 24.2211C23.7107 25.5096 23.2963 26.7077 22.6308 27.7282C22.141 26.0961 21.0212 24.6889 19.5112 23.8575ZM18.6922 21.7838C18.5252 21.6111 18.3374 21.4589 18.1325 21.3315C18.973 20.0201 20.3994 19.1485 21.9673 19.0194C22.7878 19.9384 23.3766 21.0681 23.6406 22.3167C22.1391 21.5067 20.3498 21.3029 18.6922 21.7838Z" fill="url(#paint0_linear_301_12289)"/>
<defs>
<linearGradient id="paint0_linear_301_12289" x1="0" y1="23.9999" x2="48" y2="23.9999" gradientUnits="userSpaceOnUse">
<stop stop-color="#CBFE1C"/>
<stop offset="0.4375" stop-color="#CBFE1C"/>
</linearGradient>
</defs>
</svg>
