<svg width="48" height="48" viewBox="0 0 48 48" fill="none" xmlns="http://www.w3.org/2000/svg">
<g clip-path="url(#clip0_301_12296)">
<path d="M0.923274 20.335C0.413044 20.335 0 20.748 0 21.2577V25.873C0 26.3833 0.413044 26.7963 0.923274 26.7963C1.43298 26.7963 1.84602 26.3833 1.84602 25.873V21.2577C1.84602 20.748 1.43298 20.335 0.923274 20.335Z" fill="#CBFE1C"/>
<path d="M5.54241 16.5552C5.03271 16.5552 4.61914 16.9687 4.61914 17.4784V30.2585C4.61914 30.7687 5.03271 31.1818 5.54241 31.1818C6.05212 31.1818 6.46569 30.7687 6.46569 30.2585V17.4784C6.46569 16.9687 6.05212 16.5552 5.54241 16.5552Z" fill="#CBFE1C"/>
<path d="M10.1537 10.1812C9.64404 10.1812 9.23047 10.5942 9.23047 11.1039V36.9503C9.23047 37.46 9.64404 37.8736 10.1537 37.8736C10.6634 37.8736 11.077 37.46 11.077 36.9503V11.1039C11.077 10.5942 10.6634 10.1812 10.1537 10.1812Z" fill="#CBFE1C"/>
<path d="M14.769 14.7964C14.2593 14.7964 13.8457 15.2094 13.8457 15.7197V31.4116C13.8457 31.9213 14.2593 32.3349 14.769 32.3349C15.2787 32.3349 15.6923 31.9213 15.6923 31.4116V15.7197C15.6923 15.2094 15.2787 14.7964 14.769 14.7964Z" fill="#CBFE1C"/>
<path d="M28.7059 12.5615C28.1962 12.5615 27.7832 12.9746 27.7832 13.4848V34.2527C27.7832 34.7624 28.1962 35.1754 28.7059 35.1754C29.2157 35.1754 29.6292 34.7624 29.6292 34.2527V13.4848C29.6292 12.9746 29.2157 12.5615 28.7059 12.5615Z" fill="#CBFE1C"/>
<path d="M37.8471 13.873C37.3374 13.873 36.9238 14.2866 36.9238 14.7963V33.2576C36.9238 33.7678 37.3374 34.1809 37.8471 34.1809C38.3568 34.1809 38.7698 33.7678 38.7698 33.2576V14.7963C38.7698 14.2866 38.3568 13.873 37.8471 13.873Z" fill="#CBFE1C"/>
<path d="M42.4623 18.4883C41.9526 18.4883 41.5391 18.9019 41.5391 19.4116V28.6422C41.5391 29.1519 41.9526 29.5655 42.4623 29.5655C42.972 29.5655 43.3851 29.1519 43.3851 28.6422V19.4116C43.3851 18.9019 42.972 18.4883 42.4623 18.4883Z" fill="#CBFE1C"/>
<path d="M33.2319 6.48828C32.7216 6.48828 32.3086 6.90185 32.3086 7.41156V40.642C32.3086 41.1523 32.7216 41.5653 33.2319 41.5653C33.7416 41.5653 34.1546 41.1523 34.1546 40.642V7.41156C34.1546 6.90185 33.7416 6.48828 33.2319 6.48828Z" fill="#CBFE1C"/>
<path d="M19.3837 21.2578C18.874 21.2578 18.4609 21.6714 18.4609 22.1811V25.8731C18.4609 26.3834 18.874 26.7964 19.3837 26.7964C19.8934 26.7964 20.307 26.3834 20.307 25.8731V22.1811C20.307 21.6714 19.8934 21.2578 19.3837 21.2578Z" fill="#CBFE1C"/>
<path d="M47.0776 20.9487C46.5679 20.9487 46.1543 21.3618 46.1543 21.8715V25.8656C46.1543 26.3753 46.5679 26.7889 47.0776 26.7889C47.5873 26.7889 48.0008 26.3753 48.0008 25.8656V21.8715C48.0008 21.3618 47.5873 20.9487 47.0776 20.9487Z" fill="#CBFE1C"/>
<path d="M23.9135 19.189C23.4033 19.189 22.9902 19.602 22.9902 20.1117V27.6257C22.9902 28.1354 23.4033 28.549 23.9135 28.549C24.4232 28.549 24.8363 28.1354 24.8363 27.6257V20.1117C24.8363 19.602 24.4232 19.189 23.9135 19.189Z" fill="#CBFE1C"/>
</g>
<defs>
<clipPath id="clip0_301_12296">
<rect width="48" height="48" fill="white"/>
</clipPath>
</defs>
</svg>
