<svg width="48" height="48" viewBox="0 0 48 48" fill="none" xmlns="http://www.w3.org/2000/svg">
<g clip-path="url(#clip0_301_12313)">
<path d="M47.2 8H28C27.5582 8 27.2 8.3582 27.2 8.8V16C27.2003 16.4418 27.5588 16.7997 28.0006 16.7994C28.0863 16.7993 28.1715 16.7855 28.2528 16.7584L29.2584 16.4232C30.3502 16.0658 31.5249 16.6612 31.8822 17.753C32.2395 18.8448 31.6442 20.0195 30.5524 20.3768C30.132 20.5144 29.6787 20.5144 29.2583 20.3768L28.2527 20.0416C27.8335 19.902 27.3805 20.1286 27.2409 20.5478C27.2138 20.6291 27.2 20.7143 27.1999 20.8V27.2H20.7999C20.3581 27.2003 20.0002 27.5588 20.0005 28.0006C20.0006 28.0863 20.0144 28.1715 20.0415 28.2528L20.3767 29.2584C20.7341 30.3502 20.1387 31.5249 19.0469 31.8822C17.9551 32.2396 16.7804 31.6442 16.4231 30.5524C16.2855 30.132 16.2855 29.6787 16.4231 29.2583L16.7583 28.2527C16.8979 27.8335 16.6713 27.3805 16.2521 27.2409C16.1708 27.2138 16.0856 27.2 15.9999 27.1999H8.8C8.3582 27.1999 8 27.5581 8 27.9999V47.1999C8 47.6417 8.3582 47.9999 8.8 47.9999H47.2C47.6418 47.9999 48 47.6417 48 47.1999V8.8C48 8.3582 47.6418 8 47.2 8ZM27.241 39.7478C27.2139 39.8291 27.2001 39.9143 27.2 40V46.4H9.6V28.8H14.8904C14.2791 30.7383 15.3549 32.8052 17.2932 33.4164C19.2315 34.0277 21.2984 32.9519 21.9096 31.0136C22.1368 30.2932 22.1368 29.5203 21.9096 28.7999H27.2V35.1999C27.2003 35.6417 27.5588 35.9996 28.0006 35.9993C28.0863 35.9992 28.1715 35.9854 28.2528 35.9583L29.2584 35.6231C30.3502 35.2658 31.5249 35.8611 31.8822 36.9529C32.2395 38.0447 31.6442 39.2194 30.5524 39.5767C30.132 39.7143 29.6787 39.7143 29.2583 39.5767L28.2527 39.2415C27.8336 39.102 27.3806 39.3286 27.241 39.7478ZM46.4 46.4H28.8V41.1096C30.7383 41.7209 32.8052 40.6451 33.4164 38.7068C34.0277 36.7685 32.9519 34.7016 31.0136 34.0904C30.2932 33.8632 29.5203 33.8632 28.7999 34.0904V28.8H35.1999C35.6417 28.7997 35.9996 28.4412 35.9993 27.9994C35.9992 27.9137 35.9854 27.8285 35.9583 27.7472L35.6231 26.7416C35.2658 25.6498 35.8611 24.4751 36.9529 24.1178C38.0447 23.7605 39.2194 24.3558 39.5767 25.4476C39.7143 25.868 39.7143 26.3213 39.5767 26.7417L39.2415 27.7473C39.1019 28.1665 39.3285 28.6195 39.7477 28.7591C39.829 28.7862 39.9142 28.8 39.9999 28.8001H46.3999V46.4H46.4ZM46.4 27.2H41.1096C41.7209 25.2617 40.6451 23.1948 38.7068 22.5836C36.7685 21.9723 34.7016 23.0481 34.0904 24.9864C33.8632 25.7068 33.8632 26.4797 34.0904 27.2001H28.8V21.9097C29.9111 22.2698 31.1275 22.0755 32.0712 21.3873C33.7258 20.2071 34.1104 17.909 32.9302 16.2544C31.9982 14.9478 30.3269 14.3959 28.8 14.8905V9.6H46.4V27.2Z" fill="url(#paint0_linear_301_12313)"/>
<path d="M23.0137 6.8904C22.2933 6.6632 21.5204 6.6632 20.8 6.8904V0.8C20.8 0.3582 20.4418 0 20 0H0.8C0.3582 0 0 0.3582 0 0.8V20C0 20.4418 0.3582 20.8 0.8 20.8H6.8904C6.2791 22.7383 7.3549 24.8052 9.2932 25.4164C11.2315 26.0276 13.2984 24.9519 13.9096 23.0136C14.1368 22.2932 14.1368 21.5203 13.9096 20.7999H20C20.4418 20.7999 20.8 20.4417 20.8 19.9999V13.9095C22.7383 14.5208 24.8052 13.445 25.4164 11.5067C26.0277 9.5685 24.952 7.5017 23.0137 6.8904ZM22.5525 12.3768C22.1321 12.5144 21.6788 12.5144 21.2584 12.3768L20.2528 12.0416C19.8336 11.902 19.3806 12.1286 19.241 12.5478C19.2139 12.6291 19.2001 12.7143 19.2 12.8V19.2H12.8C12.3582 19.2003 12.0003 19.5588 12.0006 20.0006C12.0007 20.0863 12.0145 20.1715 12.0416 20.2528L12.3768 21.2584C12.7342 22.3502 12.1388 23.5249 11.047 23.8822C9.9552 24.2395 8.7805 23.6442 8.4232 22.5524C8.2856 22.132 8.2856 21.6787 8.4232 21.2583L8.7584 20.2527C8.898 19.8335 8.6714 19.3805 8.2522 19.2409C8.1709 19.2138 8.0857 19.2 8 19.1999H1.6V1.6H19.2V8C19.2003 8.4418 19.5588 8.7997 20.0006 8.7994C20.0863 8.7993 20.1715 8.7855 20.2528 8.7584L21.2584 8.4232C22.3502 8.0659 23.5249 8.6612 23.8822 9.753C24.2396 10.8447 23.6442 12.0195 22.5525 12.3768Z" fill="url(#paint1_linear_301_12313)"/>
</g>
<defs>
<linearGradient id="paint0_linear_301_12313" x1="8" y1="27.9999" x2="48" y2="27.9999" gradientUnits="userSpaceOnUse">
<stop stop-color="#CBFE1C"/>
<stop offset="0.4375" stop-color="#CBFE1C"/>
</linearGradient>
<linearGradient id="paint1_linear_301_12313" x1="0" y1="12.7939" x2="25.5878" y2="12.7939" gradientUnits="userSpaceOnUse">
<stop stop-color="#CBFE1C"/>
<stop offset="0.4375" stop-color="#CBFE1C"/>
</linearGradient>
<clipPath id="clip0_301_12313">
<rect width="48" height="48" fill="white"/>
</clipPath>
</defs>
</svg>
