<svg width="48" height="48" viewBox="0 0 48 48" fill="none" xmlns="http://www.w3.org/2000/svg">
<path fill-rule="evenodd" clip-rule="evenodd" d="M9.83622 26.0725C9.37808 26.0699 9.08635 26.5589 9.29968 26.9616C9.98928 28.2837 10.8864 29.52 11.9829 30.6176C14.241 32.8752 14.6058 35.12 14.0912 38.0619L13.1664 43.3643C13.0277 44.1595 14.2224 44.3669 14.361 43.5733L15.281 38.2704C15.8309 35.1125 15.3498 32.2736 12.8362 29.7616C11.8277 28.7531 11.008 27.6235 10.3749 26.4064C10.2752 26.2032 10.0645 26.0725 9.83622 26.0725Z" fill="url(#paint0_linear_301_12163)"/>
<path fill-rule="evenodd" clip-rule="evenodd" d="M24.2321 19.008H26.734V23.6224H24.9318L24.2321 19.008ZM8.17556 19.008H11.9868C11.9068 19.5525 11.9036 20.1168 11.99 20.6864L12.4369 23.6224H8.17556C7.69823 23.6224 6.70356 23.2528 6.70356 21.3162C6.70356 19.3781 7.69876 19.008 8.17556 19.008ZM18.4038 15.0634C20.7238 15.1584 22.6673 16.7808 23.0124 19.0282L23.7324 23.7504C24.1238 26.32 22.2764 28.7253 19.5292 29.1392C16.7825 29.553 14.3009 27.7984 13.9094 25.2282L13.1905 20.5066C12.799 17.9392 14.6428 15.5344 17.3905 15.1205C17.7318 15.0693 18.0705 15.0501 18.4038 15.0634ZM37.9153 14.2165V28.7525L29.6737 27.1781C28.9734 27.0448 28.6156 26.7616 28.3489 26.2922C28.0988 25.8496 27.9676 25.1893 27.9574 24.6282C27.9825 24.5306 27.9761 18.0949 27.9761 18.0949C28.0044 17.6229 28.2156 16.9285 28.5654 16.3973C28.9404 15.8362 29.4289 15.4704 30.0342 15.3786L37.9153 14.2165ZM39.1233 14.0389C40.1398 13.9525 41.295 14.5914 41.295 15.3589V27.9504C41.295 29.169 40.015 29.1472 39.1233 28.984V14.0389ZM18.2705 6.4277L19.4236 13.9776C18.7121 13.8357 17.9654 13.8112 17.207 13.9248C16.4454 14.0389 15.7425 14.289 15.1068 14.6304L13.9569 7.0725C13.7702 5.86717 14.5788 4.77277 15.9121 4.69704C17.2486 4.6197 18.1089 5.37277 18.2705 6.4277ZM15.7068 3.4757C13.7537 3.6725 12.4753 5.4053 12.759 7.2533L14.0038 15.3888C13.2422 16.0474 12.6508 16.8752 12.2988 17.8H9.04063C9.30943 16.2448 9.84276 14.7194 10.6678 13.2917C11.1094 12.528 11.6177 11.8138 12.1793 11.1669C12.526 10.7781 12.2513 10.1616 11.7324 10.1584C11.551 10.1584 11.3825 10.2389 11.2657 10.3754C10.6545 11.0837 10.1041 11.8533 9.62089 12.6864C8.68223 14.3141 8.08223 16.064 7.80756 17.8448C6.69609 18.0474 5.49609 19.161 5.49609 21.3162C5.49609 23.7141 6.98249 24.8309 8.17609 24.8309H12.6241L12.7094 25.408C13.2044 28.6501 16.3542 30.8389 19.7126 30.3333C22.6294 29.8944 24.7825 27.5616 24.9761 24.8309H26.7574C26.8076 25.5973 26.9574 26.2922 27.2961 26.8858C27.718 27.6362 28.4657 28.1808 29.4428 28.3664L35.7126 29.561C35.7094 29.5696 35.7041 29.5754 35.7041 29.5829L34.6758 36.1664C34.5788 36.7914 33.8342 36.9605 33.3174 37.1221C32.4924 37.3829 31.4092 37.4138 30.5622 37.2944L23.1841 35.1946C21.7734 34.7925 21.262 34.2197 20.5121 32.92C20.3985 32.72 20.1873 32.6032 19.959 32.6112C19.5009 32.6282 19.2289 33.1312 19.462 33.5248C20.2753 34.9306 21.182 35.8805 22.8486 36.3562L29.7404 38.3221L28.7788 43.3536C28.5985 44.1616 29.8342 44.4 29.9676 43.5813L30.9489 38.4533C31.8428 38.5146 32.7958 38.5424 33.6492 38.2869C34.6513 37.984 35.7126 37.3589 35.871 36.3562L36.8993 29.7866L39.0929 30.2053C39.9265 30.3642 40.7345 30.3173 41.3958 29.9477C42.0593 29.5786 42.5041 28.8341 42.5041 27.9509V15.3589C42.5041 14.4746 42.0822 13.7168 41.4406 13.2784C40.8428 12.9285 40.2908 12.8032 39.7094 12.7946C39.518 12.7893 39.3206 12.8005 39.118 12.817L35.7073 13.3194C35.7041 13.3088 35.6988 13.2976 35.6929 13.2858C33.8156 9.66717 30.4764 6.8725 26.3377 5.7637C25.118 5.43944 23.8876 5.2725 22.671 5.2581C22.2625 5.2533 21.8598 5.26397 21.4577 5.2917C20.6294 5.32797 20.7158 6.5781 21.5377 6.4997C23.0177 6.39731 24.5324 6.5333 26.0262 6.93384C29.7041 7.91997 32.6844 10.3477 34.4348 13.5082L29.8577 14.1861C28.863 14.3333 28.0742 14.953 27.5574 15.7306C27.1489 16.3445 26.8993 17.0672 26.7958 17.8H23.9377C23.3878 16.2528 22.199 15.0416 20.7094 14.3888L19.4625 6.24157C19.1985 4.50877 17.6588 3.2805 15.7068 3.4757Z" fill="url(#paint1_linear_301_12163)"/>
<path fill-rule="evenodd" clip-rule="evenodd" d="M18.0561 19.4191C19.031 19.2671 19.8977 19.8943 20.0363 20.8335L20.3414 22.8885C20.4811 23.8255 19.8363 24.6922 18.8614 24.8442C17.8865 24.9946 17.023 24.3642 16.8833 23.425L16.5782 21.3695C16.4395 20.4303 17.0811 19.569 18.0561 19.4191ZM17.8779 18.2197C16.2747 18.4671 15.1446 19.9615 15.3809 21.5551L15.6859 23.6111C15.9195 25.2026 17.4326 26.289 19.0358 26.0389C20.6411 25.7914 21.7723 24.2975 21.5361 22.7029L21.231 20.6474C20.9947 19.0559 19.4833 17.969 17.8779 18.2197Z" fill="url(#paint2_linear_301_12163)"/>
<defs>
<linearGradient id="paint0_linear_301_12163" x1="9.22852" y1="35.0736" x2="15.4849" y2="35.0736" gradientUnits="userSpaceOnUse">
<stop stop-color="#CBFE1C"/>
<stop offset="0.4375" stop-color="#CBFE1C"/>
</linearGradient>
<linearGradient id="paint1_linear_301_12163" x1="5.49609" y1="23.7726" x2="42.5041" y2="23.7726" gradientUnits="userSpaceOnUse">
<stop stop-color="#CBFE1C"/>
<stop offset="0.4375" stop-color="#CBFE1C"/>
</linearGradient>
<linearGradient id="paint2_linear_301_12163" x1="15.3496" y1="22.1292" x2="21.5673" y2="22.1292" gradientUnits="userSpaceOnUse">
<stop stop-color="#CBFE1C"/>
<stop offset="0.4375" stop-color="#CBFE1C"/>
</linearGradient>
</defs>
</svg>
