<svg width="48" height="48" viewBox="0 0 48 48" fill="none" xmlns="http://www.w3.org/2000/svg">
<path d="M46.2697 41.5124L44.7884 35.9441C44.755 35.8187 44.6851 35.706 44.5877 35.6203C44.4902 35.5346 44.3695 35.4797 44.2409 35.4625C44.1123 35.4453 43.9814 35.4666 43.8649 35.5238C43.7484 35.5809 43.6514 35.6713 43.5862 35.7836L41.8709 38.7427L37.5832 36.2302V21.6461C37.5824 21.6109 37.5789 21.5758 37.5727 21.5411C37.5777 21.5145 37.5812 21.4877 37.5832 21.4608C37.5833 21.3463 37.5534 21.2337 37.4964 21.1343C37.4394 21.035 37.3574 20.9523 37.2584 20.8946L24.6566 13.5119V8.55257H28.0747C28.2045 8.55243 28.3313 8.51383 28.4391 8.44164C28.5469 8.36945 28.6309 8.26692 28.6805 8.147C28.73 8.02708 28.7429 7.89515 28.7176 7.7679C28.6922 7.64065 28.6296 7.52378 28.5378 7.43207L24.4642 3.3577C24.3411 3.23473 24.1743 3.16565 24.0003 3.16565C23.8264 3.16565 23.6595 3.23473 23.5364 3.3577L19.4628 7.43207C19.371 7.52383 19.3084 7.64076 19.283 7.76809C19.2577 7.89541 19.2706 8.02739 19.3203 8.14734C19.37 8.26729 19.4541 8.36982 19.562 8.44195C19.67 8.51408 19.7969 8.55258 19.9267 8.55257H23.3441V13.5119L10.7422 20.8946C10.6433 20.9524 10.5613 21.0351 10.5044 21.1344C10.4474 21.2338 10.4174 21.3463 10.4174 21.4608C10.4194 21.4878 10.423 21.5146 10.4283 21.5411C10.4218 21.5757 10.4182 21.6108 10.4174 21.6461V36.2294L6.13007 38.7419L4.41444 35.7824C4.34926 35.6702 4.25229 35.5798 4.13576 35.5227C4.01923 35.4655 3.88839 35.4442 3.75974 35.4614C3.6311 35.4785 3.51043 35.5334 3.41297 35.6192C3.31552 35.7049 3.24565 35.8175 3.21219 35.9429L1.73094 41.5124C1.68631 41.6807 1.71029 41.8598 1.79762 42.0104C1.88495 42.161 2.02848 42.2708 2.19669 42.3157L7.76545 43.7969C7.89086 43.8302 8.02333 43.8256 8.1461 43.7836C8.26888 43.7416 8.37646 43.6642 8.45524 43.5611C8.53403 43.458 8.58048 43.3339 8.58872 43.2044C8.59697 43.0749 8.56664 42.9458 8.50157 42.8336L6.78782 39.8767L11.0733 37.3661L23.6681 44.7442C23.6756 44.7487 23.6842 44.7502 23.6917 44.7543C23.7277 44.7735 23.7653 44.7893 23.8042 44.8016C23.8173 44.8057 23.8301 44.8106 23.8436 44.8139C23.9455 44.8414 24.0529 44.8414 24.1548 44.8139C24.1683 44.8106 24.1811 44.8057 24.1923 44.8016C24.2312 44.7893 24.2688 44.7735 24.3048 44.7543C24.3123 44.7502 24.3209 44.7487 24.3284 44.7442L36.9269 37.3661L41.2124 39.8786L39.4991 42.8339C39.4412 42.9337 39.4107 43.0469 39.4105 43.1622C39.4103 43.2776 39.4406 43.3909 39.4981 43.4908C39.5557 43.5907 39.6385 43.6737 39.7384 43.7314C39.8382 43.7891 39.9515 43.8195 40.0668 43.8194C40.1238 43.8193 40.1805 43.8119 40.2356 43.7973L45.8043 42.3161C45.9725 42.2711 46.1161 42.1613 46.2033 42.0106C46.2906 41.8599 46.3145 41.6807 46.2697 41.5124ZM24.0003 4.7497L26.4907 7.24007H21.5099L24.0003 4.7497ZM3.16832 41.2147L4.07357 37.8116L6.57144 42.1199L3.16832 41.2147ZM24.0003 14.6486L35.6287 21.4608L24.0003 28.2727L12.3723 21.4608L24.0003 14.6486ZM11.7299 22.6057L23.3441 29.4093V43.0331L11.7299 36.2294V22.6057ZM24.6566 43.0331V29.4093L36.2707 22.6057V36.2294L24.6566 43.0331ZM41.4292 42.1199L43.9271 37.8116L44.8327 41.2147L41.4292 42.1199Z" fill="url(#paint0_linear_301_12210)"/>
<defs>
<linearGradient id="paint0_linear_301_12210" x1="1.70898" y1="24.0001" x2="46.2918" y2="24.0001" gradientUnits="userSpaceOnUse">
<stop stop-color="#CBFE1C"/>
<stop offset="0.4375" stop-color="#CBFE1C"/>
</linearGradient>
</defs>
</svg>
