<svg width="48" height="48" viewBox="0 0 48 48" fill="none" xmlns="http://www.w3.org/2000/svg">
<path d="M30 15.75C30.4142 15.75 30.75 15.4142 30.75 15C30.75 14.5858 30.4142 14.25 30 14.25C29.5858 14.25 29.25 14.5858 29.25 15C29.25 15.4142 29.5858 15.75 30 15.75Z" fill="url(#paint0_linear_301_12172)"/>
<path d="M34.5 15.75C34.9142 15.75 35.25 15.4142 35.25 15C35.25 14.5858 34.9142 14.25 34.5 14.25C34.0858 14.25 33.75 14.5858 33.75 15C33.75 15.4142 34.0858 15.75 34.5 15.75Z" fill="url(#paint1_linear_301_12172)"/>
<path d="M32.25 13.5C32.6642 13.5 33 13.1642 33 12.75C33 12.3358 32.6642 12 32.25 12C31.8358 12 31.5 12.3358 31.5 12.75C31.5 13.1642 31.8358 13.5 32.25 13.5Z" fill="url(#paint2_linear_301_12172)"/>
<path d="M32.25 18C32.6642 18 33 17.6642 33 17.25C33 16.8358 32.6642 16.5 32.25 16.5C31.8358 16.5 31.5 16.8358 31.5 17.25C31.5 17.6642 31.8358 18 32.25 18Z" fill="url(#paint3_linear_301_12172)"/>
<path d="M13.5 15.75H15V17.25C15 17.4489 15.079 17.6397 15.2197 17.7803C15.3603 17.921 15.5511 18 15.75 18C15.9489 18 16.1397 17.921 16.2803 17.7803C16.421 17.6397 16.5 17.4489 16.5 17.25V15.75H18C18.1989 15.75 18.3897 15.671 18.5303 15.5303C18.671 15.3897 18.75 15.1989 18.75 15C18.75 14.8011 18.671 14.6103 18.5303 14.4697C18.3897 14.329 18.1989 14.25 18 14.25H16.5V12.75C16.5 12.5511 16.421 12.3603 16.2803 12.2197C16.1397 12.079 15.9489 12 15.75 12C15.5511 12 15.3603 12.079 15.2197 12.2197C15.079 12.3603 15 12.5511 15 12.75V14.25H13.5C13.3011 14.25 13.1103 14.329 12.9697 14.4697C12.829 14.6103 12.75 14.8011 12.75 15C12.75 15.1989 12.829 15.3897 12.9697 15.5303C13.1103 15.671 13.3011 15.75 13.5 15.75Z" fill="url(#paint4_linear_301_12172)"/>
<path d="M21.75 18H22.5C22.6989 18 22.8897 17.921 23.0303 17.7803C23.171 17.6397 23.25 17.4489 23.25 17.25C23.25 17.0511 23.171 16.8603 23.0303 16.7197C22.8897 16.579 22.6989 16.5 22.5 16.5H21.75C21.5511 16.5 21.3603 16.579 21.2197 16.7197C21.079 16.8603 21 17.0511 21 17.25C21 17.4489 21.079 17.6397 21.2197 17.7803C21.3603 17.921 21.5511 18 21.75 18Z" fill="url(#paint5_linear_301_12172)"/>
<path d="M25.5 18H26.25C26.4489 18 26.6397 17.921 26.7803 17.7803C26.921 17.6397 27 17.4489 27 17.25C27 17.0511 26.921 16.8603 26.7803 16.7197C26.6397 16.579 26.4489 16.5 26.25 16.5H25.5C25.3011 16.5 25.1103 16.579 24.9697 16.7197C24.829 16.8603 24.75 17.0511 24.75 17.25C24.75 17.4489 24.829 17.6397 24.9697 17.7803C25.1103 17.921 25.3011 18 25.5 18Z" fill="url(#paint6_linear_301_12172)"/>
<path d="M38.0306 7.71937L36.5306 6.21937C36.3898 6.07883 36.199 5.99993 36 6H12C11.801 5.99993 11.6102 6.07883 11.4694 6.21937L9.96937 7.71937C9.82883 7.86019 9.74993 8.05104 9.75 8.25V25.5C9.74993 25.699 9.82883 25.8898 9.96937 26.0306L11.4694 27.5306C11.6102 27.6712 11.801 27.7501 12 27.75H16.5C16.6574 27.75 16.8109 27.7005 16.9386 27.6085C17.0663 27.5164 17.1618 27.3865 17.2116 27.2372L19.2909 21H28.6228L30.7913 27.2456C30.8423 27.3929 30.938 27.5207 31.065 27.6111C31.1921 27.7015 31.3441 27.75 31.5 27.75H36C36.199 27.7501 36.3898 27.6712 36.5306 27.5306L38.0306 26.0306C38.1712 25.8898 38.2501 25.699 38.25 25.5V8.25C38.2501 8.05104 38.1712 7.86019 38.0306 7.71937ZM26.7891 7.5L26.4141 9H21.5859L21.2109 7.5H26.7891ZM36.75 25.1897L35.6897 26.25H32.0334L29.865 20.0044C29.8139 19.8571 29.7182 19.7293 29.5912 19.6389C29.4642 19.5485 29.3122 19.5 29.1562 19.5H18.75C18.5926 19.5 18.4391 19.5495 18.3114 19.6415C18.1837 19.7336 18.0882 19.8635 18.0384 20.0128L15.9591 26.25H12.3103L11.25 25.1897V8.56031L12.3103 7.5H19.6641L20.2725 9.93188C20.3131 10.0941 20.4067 10.2382 20.5385 10.3411C20.6703 10.444 20.8328 10.5 21 10.5H27C27.1672 10.5 27.3297 10.444 27.4615 10.3411C27.5933 10.2382 27.6869 10.0941 27.7275 9.93188L28.3359 7.5H35.6897L36.75 8.56031V25.1897Z" fill="url(#paint7_linear_301_12172)"/>
<path d="M46.5 29.25H1.5C1.30109 29.25 1.11032 29.329 0.96967 29.4697C0.829018 29.6103 0.75 29.8011 0.75 30V40.5C0.75 40.6989 0.829018 40.8897 0.96967 41.0303C1.11032 41.171 1.30109 41.25 1.5 41.25H2.25V42.75C2.25 42.9489 2.32902 43.1397 2.46967 43.2803C2.61032 43.421 2.80109 43.5 3 43.5H10.5C10.6989 43.5 10.8897 43.421 11.0303 43.2803C11.171 43.1397 11.25 42.9489 11.25 42.75V41.25H36.75V42.75C36.75 42.9489 36.829 43.1397 36.9697 43.2803C37.1103 43.421 37.3011 43.5 37.5 43.5H45C45.1989 43.5 45.3897 43.421 45.5303 43.2803C45.671 43.1397 45.75 42.9489 45.75 42.75V41.25H46.5C46.6989 41.25 46.8897 41.171 47.0303 41.0303C47.171 40.8897 47.25 40.6989 47.25 40.5V30C47.25 29.8011 47.171 29.6103 47.0303 29.4697C46.8897 29.329 46.6989 29.25 46.5 29.25ZM28.7869 30.75L28.0369 32.25H19.9631L19.2131 30.75H28.7869ZM9.75 42H3.75V41.25H9.75V42ZM44.25 42H38.25V41.25H44.25V42ZM45.75 39.75H2.25V30.75H17.5369L18.8288 33.3356C18.8912 33.4602 18.987 33.5649 19.1056 33.638C19.2241 33.7112 19.3607 33.75 19.5 33.75H28.5C28.6393 33.75 28.7759 33.7112 28.8944 33.638C29.013 33.5649 29.1088 33.4602 29.1712 33.3356L30.4631 30.75H45.75V39.75Z" fill="url(#paint8_linear_301_12172)"/>
<path d="M12 34.5C11.8011 34.5 11.6103 34.579 11.4697 34.7197C11.329 34.8603 11.25 35.0511 11.25 35.25V37.5C11.25 37.6989 11.329 37.8897 11.4697 38.0303C11.6103 38.171 11.8011 38.25 12 38.25H36C36.1989 38.25 36.3897 38.171 36.5303 38.0303C36.671 37.8897 36.75 37.6989 36.75 37.5V35.25C36.75 35.0511 36.671 34.8603 36.5303 34.7197C36.3897 34.579 36.1989 34.5 36 34.5H12ZM35.25 36.75H12.75V36H35.25V36.75Z" fill="url(#paint9_linear_301_12172)"/>
<path d="M7.5 32.25H4.5C4.30109 32.25 4.11032 32.329 3.96967 32.4697C3.82902 32.6103 3.75 32.8011 3.75 33V37.5C3.75 37.6989 3.82902 37.8897 3.96967 38.0303C4.11032 38.171 4.30109 38.25 4.5 38.25H7.5C7.69891 38.25 7.88968 38.171 8.03033 38.0303C8.17098 37.8897 8.25 37.6989 8.25 37.5V33C8.25 32.8011 8.17098 32.6103 8.03033 32.4697C7.88968 32.329 7.69891 32.25 7.5 32.25ZM6.75 33.75V34.5H5.25V33.75H6.75ZM5.25 36.75V36H6.75V36.75H5.25Z" fill="url(#paint10_linear_301_12172)"/>
<path d="M39.75 33.75H43.5C43.6989 33.75 43.8897 33.671 44.0303 33.5303C44.171 33.3897 44.25 33.1989 44.25 33C44.25 32.8011 44.171 32.6103 44.0303 32.4697C43.8897 32.329 43.6989 32.25 43.5 32.25H39.75C39.5511 32.25 39.3603 32.329 39.2197 32.4697C39.079 32.6103 39 32.8011 39 33C39 33.1989 39.079 33.3897 39.2197 33.5303C39.3603 33.671 39.5511 33.75 39.75 33.75Z" fill="url(#paint11_linear_301_12172)"/>
<path d="M43.5 34.5H42C41.8011 34.5 41.6103 34.579 41.4697 34.7197C41.329 34.8603 41.25 35.0511 41.25 35.25C41.25 35.4489 41.329 35.6397 41.4697 35.7803C41.6103 35.921 41.8011 36 42 36H43.5C43.6989 36 43.8897 35.921 44.0303 35.7803C44.171 35.6397 44.25 35.4489 44.25 35.25C44.25 35.0511 44.171 34.8603 44.0303 34.7197C43.8897 34.579 43.6989 34.5 43.5 34.5Z" fill="url(#paint12_linear_301_12172)"/>
<defs>
<linearGradient id="paint0_linear_301_12172" x1="29.25" y1="15" x2="30.75" y2="15" gradientUnits="userSpaceOnUse">
<stop stop-color="#CBFE1C"/>
<stop offset="0.4375" stop-color="#CBFE1C"/>
</linearGradient>
<linearGradient id="paint1_linear_301_12172" x1="33.75" y1="15" x2="35.25" y2="15" gradientUnits="userSpaceOnUse">
<stop stop-color="#CBFE1C"/>
<stop offset="0.4375" stop-color="#CBFE1C"/>
</linearGradient>
<linearGradient id="paint2_linear_301_12172" x1="31.5" y1="12.75" x2="33" y2="12.75" gradientUnits="userSpaceOnUse">
<stop stop-color="#CBFE1C"/>
<stop offset="0.4375" stop-color="#CBFE1C"/>
</linearGradient>
<linearGradient id="paint3_linear_301_12172" x1="31.5" y1="17.25" x2="33" y2="17.25" gradientUnits="userSpaceOnUse">
<stop stop-color="#CBFE1C"/>
<stop offset="0.4375" stop-color="#CBFE1C"/>
</linearGradient>
<linearGradient id="paint4_linear_301_12172" x1="12.75" y1="15" x2="18.75" y2="15" gradientUnits="userSpaceOnUse">
<stop stop-color="#CBFE1C"/>
<stop offset="0.4375" stop-color="#CBFE1C"/>
</linearGradient>
<linearGradient id="paint5_linear_301_12172" x1="21" y1="17.25" x2="23.25" y2="17.25" gradientUnits="userSpaceOnUse">
<stop stop-color="#CBFE1C"/>
<stop offset="0.4375" stop-color="#CBFE1C"/>
</linearGradient>
<linearGradient id="paint6_linear_301_12172" x1="24.75" y1="17.25" x2="27" y2="17.25" gradientUnits="userSpaceOnUse">
<stop stop-color="#CBFE1C"/>
<stop offset="0.4375" stop-color="#CBFE1C"/>
</linearGradient>
<linearGradient id="paint7_linear_301_12172" x1="9.75" y1="16.875" x2="38.25" y2="16.875" gradientUnits="userSpaceOnUse">
<stop stop-color="#CBFE1C"/>
<stop offset="0.4375" stop-color="#CBFE1C"/>
</linearGradient>
<linearGradient id="paint8_linear_301_12172" x1="0.75" y1="36.375" x2="47.25" y2="36.375" gradientUnits="userSpaceOnUse">
<stop stop-color="#CBFE1C"/>
<stop offset="0.4375" stop-color="#CBFE1C"/>
</linearGradient>
<linearGradient id="paint9_linear_301_12172" x1="11.25" y1="36.375" x2="36.75" y2="36.375" gradientUnits="userSpaceOnUse">
<stop stop-color="#CBFE1C"/>
<stop offset="0.4375" stop-color="#CBFE1C"/>
</linearGradient>
<linearGradient id="paint10_linear_301_12172" x1="3.75" y1="35.25" x2="8.25" y2="35.25" gradientUnits="userSpaceOnUse">
<stop stop-color="#CBFE1C"/>
<stop offset="0.4375" stop-color="#CBFE1C"/>
</linearGradient>
<linearGradient id="paint11_linear_301_12172" x1="39" y1="33" x2="44.25" y2="33" gradientUnits="userSpaceOnUse">
<stop stop-color="#CBFE1C"/>
<stop offset="0.4375" stop-color="#CBFE1C"/>
</linearGradient>
<linearGradient id="paint12_linear_301_12172" x1="41.25" y1="35.25" x2="44.25" y2="35.25" gradientUnits="userSpaceOnUse">
<stop stop-color="#CBFE1C"/>
<stop offset="0.4375" stop-color="#CBFE1C"/>
</linearGradient>
</defs>
</svg>
