<svg width="288" height="48" viewBox="0 0 288 48" fill="none" xmlns="http://www.w3.org/2000/svg">
<g clip-path="url(#clip0_301_2200)">
<path d="M62.4729 43.0257L33.6258 12.5105L24.6496 26.9148H43.3557L29.5146 34.6972H5.32688L25.4033 2.74834H44.3835L61.7192 21.3169L73.3677 2.74834H87.757L62.4729 43.0257ZM33.4888 15.8556L42.1223 25.1398H27.6645L33.4888 15.8556ZM44.5891 27.8022L62.2673 46.439L90.8404 0.90514H72.6139L61.9247 17.9036L46.165 0.90514H24.6496L2.31198 36.5404H29.172L44.5891 27.8022ZM62.1303 48.0092L43.9724 28.8262L28.9664 37.3596H0.873047L24.2385 0.0859375H46.9188L61.9933 16.4017L72.2028 0.0859375H92.1423L62.1303 48.0092ZM39.7926 24.2524L33.3517 17.4257L29.1034 24.2524H39.7926Z" fill="url(#paint0_linear_301_2200)"/>
<path d="M70.9395 36.2673L93.6197 0.0859375H113.353L90.6733 36.2673H70.9395ZM90.4678 35.4481L112.188 0.905139H93.8253L72.1043 35.4481H90.4678ZM74.7766 33.6732L94.1679 2.68007H109.516L90.1252 33.6732H74.7766Z" fill="url(#paint1_linear_301_2200)"/>
<path d="M109.265 39.8163L127.766 10.2568H112.349L117.077 2.74746H167.782L163.054 10.2568H142.018L131.534 26.9821H146.952L143.937 28.484C142.429 29.0984 140.716 29.7811 138.798 30.6003C136.811 31.4195 134.755 32.2387 132.699 33.0579C130.575 33.8771 128.52 34.6963 126.464 35.5155C124.408 36.3347 122.558 37.0173 120.914 37.7C119.269 38.3827 117.967 38.8605 116.94 39.2701C115.912 39.6797 115.364 39.8163 115.364 39.8163H109.265ZM124.819 12.0317L106.25 41.6595H114.199C114.267 41.6595 114.884 41.4547 115.98 41.0451C117.077 40.6355 118.447 40.1576 120.16 39.4749C121.805 38.7923 123.723 38.0413 125.847 37.2221C127.971 36.4029 130.164 35.5155 132.357 34.628C134.549 33.8088 136.605 32.9896 138.661 32.1704C140.716 31.3512 142.498 30.6685 144.005 29.9859L153.53 25.2072H134.481L142.772 12.0317H163.808L170.728 0.972522H116.323L109.402 12.0317H124.819ZM104.88 42.4787L123.449 12.8509H107.963L115.98 0.15332H172.167L164.15 12.8509H143.114L135.92 24.3197H156.681L144.279 30.6003C142.703 31.2829 140.853 32.0339 138.798 32.8531C136.742 33.6723 134.549 34.5597 132.357 35.3789C130.096 36.2664 127.903 37.1539 125.71 37.9731C123.518 38.8605 121.599 39.6115 119.817 40.2941C118.036 40.9768 116.597 41.4547 115.501 41.8643C114.404 42.2739 113.788 42.4787 113.651 42.4787H104.88Z" fill="url(#paint2_linear_301_2200)"/>
<path d="M155.699 33.6732L175.09 2.68007H225.658L213.119 22.7505H198.25L208.871 33.6732H191.604L180.64 22.7505L185.437 15.1046H203.663L206.678 10.2577H184.614L169.951 33.6732H155.699ZM174.405 0.905139L152.684 35.4481H170.705L185.437 12.0326H203.732L202.909 13.3297H184.683L178.174 23.7062L189.959 35.4481H213.941L203.252 24.5254H213.804L228.673 0.905139H174.405ZM151.313 36.2673L173.994 0.0859375H230.043L214.215 25.3446H205.719L216.339 36.2673H189.137L177.968 25.2081L171.047 36.2673H151.313Z" fill="url(#paint3_linear_301_2200)"/>
<path d="M213.58 33.6732L232.971 2.68007H283.265L263.874 33.6732H213.58ZM264.422 10.2577H242.427L232.56 26.0273H254.555L264.422 10.2577ZM235.506 24.2524L243.18 12.0326H261.407L253.733 24.2524H235.506ZM232.286 0.905139L210.565 35.4481H264.559L286.28 0.905139H232.286ZM209.194 36.2673L231.875 0.0859375H287.65L264.97 36.2673H209.194ZM243.523 12.8518L236.877 23.4332H253.39L260.037 12.8518H243.523Z" fill="url(#paint4_linear_301_2200)"/>
</g>
<defs>
<linearGradient id="paint0_linear_301_2200" x1="0.873047" y1="24.1707" x2="92.1359" y2="23.2776" gradientUnits="userSpaceOnUse">
<stop stop-color="#DDF247"/>
<stop offset="1" stop-color="#7CFFE5"/>
</linearGradient>
<linearGradient id="paint1_linear_301_2200" x1="70.9395" y1="18.2696" x2="113.353" y2="18.0141" gradientUnits="userSpaceOnUse">
<stop stop-color="#DDF247"/>
<stop offset="1" stop-color="#7CFFE5"/>
</linearGradient>
<linearGradient id="paint2_linear_301_2200" x1="104.88" y1="21.4247" x2="172.164" y2="20.8751" gradientUnits="userSpaceOnUse">
<stop stop-color="#DDF247"/>
<stop offset="1" stop-color="#7CFFE5"/>
</linearGradient>
<linearGradient id="paint3_linear_301_2200" x1="151.313" y1="18.2696" x2="230.036" y2="17.3894" gradientUnits="userSpaceOnUse">
<stop stop-color="#DDF247"/>
<stop offset="1" stop-color="#7CFFE5"/>
</linearGradient>
<linearGradient id="paint4_linear_301_2200" x1="209.194" y1="18.2696" x2="287.643" y2="17.3956" gradientUnits="userSpaceOnUse">
<stop stop-color="#DDF247"/>
<stop offset="1" stop-color="#7CFFE5"/>
</linearGradient>
<clipPath id="clip0_301_2200">
<rect width="288" height="48" fill="white"/>
</clipPath>
</defs>
</svg>
