<svg width="36" height="36" viewBox="0 0 36 36" fill="none" xmlns="http://www.w3.org/2000/svg">
<path d="M31.9397 18.1834L28.0231 12.1352C27.7196 11.6664 27.2049 11.3865 26.6464 11.3865H9.36592C8.80827 11.3865 8.29407 11.6657 7.99039 12.1333L4.06161 18.1822C3.66013 18.8003 3.72214 19.6163 4.21243 20.1666L16.7746 34.2699C17.0855 34.6189 17.5319 34.8192 17.9993 34.8192C17.9992 34.8192 17.9994 34.8192 17.9993 34.8192C18.4667 34.8192 18.9132 34.619 19.2242 34.27L31.7877 20.1658C32.2773 19.6162 32.3398 18.801 31.9397 18.1834ZM25.853 12.7927L22.5591 17.8861L19.2633 12.7927H25.853ZM21.2669 18.4776H14.7317L17.9993 13.4278L21.2669 18.4776ZM16.7353 12.7928L13.4485 17.8722L10.1629 12.7928H16.7353ZM8.86276 13.3718L12.1653 18.4776H5.54661L8.86276 13.3718ZM5.84361 19.8838H12.9202L16.662 32.0292L5.84361 19.8838ZM17.9993 31.5939L14.3916 19.8838H21.607L17.9993 31.5939ZM19.3366 32.0297L23.0785 19.8839H30.1557L19.3366 32.0297ZM23.8514 18.4776L27.151 13.3753L30.4549 18.4776H23.8514Z" fill="white"/>
<path d="M2.13279 18.4775H0.703125C0.314859 18.4775 0 18.7923 0 19.1807C0 19.569 0.314859 19.8838 0.703125 19.8838H2.13279C2.52105 19.8838 2.83591 19.569 2.83591 19.1807C2.83591 18.7923 2.52105 18.4775 2.13279 18.4775Z" fill="white"/>
<path d="M35.2969 18.4775H33.8672C33.4789 18.4775 33.1641 18.7923 33.1641 19.1807C33.1641 19.569 33.4789 19.8838 33.8672 19.8838H35.2969C35.6851 19.8838 36 19.569 36 19.1807C36 18.7923 35.6851 18.4775 35.2969 18.4775Z" fill="white"/>
<path d="M30.7369 6.45642C30.4622 6.18185 30.0171 6.18185 29.7424 6.45642L27.4069 8.79199C27.1323 9.06656 27.1323 9.51178 27.4069 9.78635C27.5442 9.92367 27.7242 9.99229 27.9041 9.99229C28.0841 9.99229 28.264 9.9236 28.4013 9.78635L30.7369 7.45078C31.0114 7.17621 31.0114 6.73106 30.7369 6.45642Z" fill="white"/>
<path d="M8.62356 8.7796L6.28806 6.44396C6.01356 6.16939 5.56849 6.16939 5.29364 6.44396C5.01906 6.71854 5.01906 7.16375 5.29364 7.43832L7.62921 9.77389C7.76653 9.91121 7.94646 9.97984 8.12638 9.97984C8.30631 9.97984 8.48624 9.91114 8.62356 9.77389C8.89814 9.49939 8.89814 9.05411 8.62356 8.7796Z" fill="white"/>
<path d="M18.0179 1.18066C17.6296 1.18066 17.3148 1.49545 17.3148 1.88379V6.46591C17.3148 6.85425 17.6295 7.16904 18.0179 7.16904C18.4061 7.16904 18.721 6.85425 18.721 6.46591V1.88379C18.721 1.49552 18.4061 1.18066 18.0179 1.18066Z" fill="white"/>
<path d="M18.5146 8.34762C18.3839 8.21684 18.2025 8.1416 18.0176 8.1416C17.8327 8.1416 17.6512 8.21684 17.5205 8.34762C17.3897 8.4784 17.3145 8.6598 17.3145 8.84473C17.3145 9.03035 17.3896 9.21105 17.5205 9.34184C17.6512 9.47332 17.8327 9.54785 18.0176 9.54785C18.2025 9.54785 18.3839 9.47332 18.5146 9.34184C18.6461 9.21105 18.7207 9.02965 18.7207 8.84473C18.7207 8.6598 18.6461 8.47847 18.5146 8.34762Z" fill="white"/>
</svg>
