<svg width="18" height="18" viewBox="0 0 18 18" fill="none" xmlns="http://www.w3.org/2000/svg">
<path fill-rule="evenodd" clip-rule="evenodd" d="M3.07032 9.00007L3.06363 9.05944L3.04411 9.11921L3.01247 9.17975L2.96937 9.24143L2.91542 9.30456L2.8512 9.36944L2.77726 9.43638L2.69416 9.50562L2.60247 9.57741L2.50275 9.65197L2.39561 9.7295L2.28171 9.81016L2.16173 9.89409L2.03641 9.98139L1.90656 10.0721L1.77303 10.1664L1.63676 10.264L1.49875 10.3651L1.36005 10.4694L1.22178 10.5768L1.08512 10.6871L0.951269 10.7999L0.821486 10.915L0.697031 11.0319L0.579176 11.1503L0.46917 11.2695L0.368227 11.389L0.277508 11.5083L0.19809 11.6267L0.130949 11.7436L0.0769539 11.8584L0.0368233 11.9704L0.0111332 12.079L0.000291824 12.1836L0.00453758 12.2837L0.0239296 12.3787L0.0583496 12.4682L0.107506 12.5518L0.170944 12.6293L0.248053 12.7003L0.338081 12.7648L0.440163 12.8227L0.553324 12.8739L0.676506 12.9186L0.808599 12.957L0.948452 12.9892L1.09489 13.0156L1.24675 13.0365L1.40288 13.0523L1.56215 13.0634L1.7235 13.0702L1.88592 13.0733L2.04846 13.0731L2.21025 13.0701L2.37048 13.0647L2.52843 13.0574L2.68348 13.0488L2.83504 13.0392L2.98264 13.029L3.12585 13.0188L3.26433 13.0088L3.39778 12.9995L3.52598 12.9913L3.64876 12.9843L3.76598 12.979L3.87755 12.9756L3.98344 12.9745L4.08361 12.9758L4.17809 12.9798L4.26691 12.9867L4.35013 12.9968L4.42782 13.0102L4.50008 13.0271L4.567 13.0478L4.62871 13.0723L4.68531 13.101L4.73695 13.1338L4.78376 13.171L4.82588 13.2128L4.86346 13.2592L4.89664 13.3105L4.92559 13.3667L4.95046 13.428L4.97143 13.4945L4.98867 13.5663L5.00235 13.6435L5.01268 13.7263L5.01986 13.8147L5.02409 13.9087L5.02559 14.0084L5.02462 14.1139L5.02141 14.225L5.01625 14.3418L5.00941 14.4641L5.00122 14.5919L4.99199 14.7249L4.98208 14.863L4.97185 15.0059L4.9617 15.1531L4.95203 15.3044L4.94329 15.4592L4.93591 15.6169L4.93036 15.777L4.92711 15.9387L4.92664 16.1012L4.92944 16.2637L4.93598 16.4251L4.94672 16.5846L4.96212 16.741L4.9826 16.8933L5.00855 17.0402L5.0403 17.1806L5.07816 17.3134L5.12237 17.4373L5.17308 17.5513L5.2304 17.6543L5.29435 17.7453L5.36487 17.8235L5.44181 17.888L5.52497 17.9383L5.61403 17.974L5.70863 17.9945L5.80832 18L5.91259 17.9904L6.0209 17.9658L6.13266 17.9268L6.24724 17.8739L6.36401 17.8078L6.48232 17.7293L6.60155 17.6395L6.72109 17.5393L6.84033 17.43L6.95873 17.3127L7.07579 17.1887L7.19104 17.0593L7.30409 16.9257L7.41458 16.7892L7.52223 16.6511L7.62679 16.5124L7.72811 16.3742L7.82605 16.2378L7.92054 16.104L8.01156 15.9738L8.09914 15.8481L8.18333 15.7277L8.26425 15.6133L8.34202 15.5056L8.41681 15.4053L8.48881 15.3129L8.55825 15.2291L8.62536 15.1544L8.6904 15.0894L8.75365 15.0346L8.81543 14.9906L8.87606 14.958L8.93587 14.9375L8.99526 14.9298L9.05461 14.9354L9.11433 14.9539L9.1748 14.9846L9.23637 15.0269L9.29937 15.08L9.36411 15.1434L9.43087 15.2166L9.49992 15.299L9.5715 15.39L9.64583 15.4891L9.72311 15.5957L9.80352 15.7091L9.88719 15.8286L9.97422 15.9535L10.0647 16.083L10.1586 16.2163L10.256 16.3524L10.3568 16.4903L10.4609 16.629L10.568 16.7673L10.6781 16.9042L10.7908 17.0383L10.9057 17.1684L11.0225 17.2934L11.1407 17.4118L11.2598 17.5225L11.3794 17.6242L11.4987 17.7157L11.6172 17.7961L11.7342 17.8643L11.8492 17.9193L11.9615 17.9606L12.0704 17.9874L12.1753 17.9995L12.2758 17.9964L12.3712 17.9782L12.4612 17.945L12.5453 17.897L12.6233 17.8347L12.6948 17.7586L12.7598 17.6696L12.8182 17.5685L12.87 17.4561L12.9152 17.3337L12.954 17.2023L12.9867 17.063L13.0136 16.9171L13.0349 16.7656L13.0511 16.6098L13.0626 16.4507L13.0697 16.2895L13.0731 16.1271L13.0731 15.9645L13.0703 15.8027L13.0651 15.6423L13.0579 15.4841L13.0494 15.3288L13.0398 15.177L13.0297 15.029L13.0195 14.8855L13.0095 14.7466L13.0001 14.6127L12.9918 14.4841L12.9847 14.3609L12.9792 14.2432L12.9757 14.1312L12.9744 14.0248L12.9755 13.9242L12.9792 13.8293L12.9859 13.74L12.9957 13.6564L13.0089 13.5782L13.0255 13.5055L13.0459 13.4382L13.0701 13.3761L13.0984 13.3191L13.1309 13.267L13.1678 13.2199L13.2092 13.1774L13.2552 13.1394L13.3061 13.1059L13.3619 13.0766L13.4228 13.0514L13.4889 13.0302L13.5603 13.0126L13.6371 12.9987L13.7194 12.9881L13.8073 12.9807L13.9009 12.9762L14.0002 12.9745L14.1052 12.9753L14.2158 12.9783L14.3322 12.9833L14.4541 12.9901L14.5814 12.9981L14.714 13.0073L14.8517 13.0172L14.9942 13.0274L15.1411 13.0376L15.2921 13.0473L15.4466 13.0561L15.6042 13.0636L15.7641 13.0693L15.9257 13.0728L16.0881 13.0735L16.2506 13.071L16.4122 13.0648L16.5719 13.0544L16.7286 13.0393L16.8812 13.0193L17.0286 12.9938L17.1696 12.9625L17.303 12.9251L17.4277 12.8815L17.5425 12.8313L17.6464 12.7745L17.7384 12.711L17.8176 12.641L17.8833 12.5646L17.9348 12.4819L17.9715 12.3933L17.9933 12.2992L18 12.1999L17.9916 12.0959L17.9682 11.9879L17.9303 11.8764L17.8785 11.762L17.8134 11.6454L17.7359 11.5272L17.6469 11.408L17.5475 11.2885L17.4389 11.1692L17.3222 11.0507L17.1987 10.9335L17.0697 10.8181L16.9364 10.7049L16.8001 10.5942L16.662 10.4863L16.5233 10.3815L16.3851 10.2799L16.2485 10.1817L16.1144 10.0869L15.9839 9.99562L15.8578 9.90777L15.737 9.82331L15.622 9.74213L15.5138 9.66412L15.4128 9.5891L15.3198 9.51688L15.2353 9.44724L15.1599 9.37996L15.0941 9.31476L15.0385 9.25138L14.9936 9.18949L14.9601 9.12879L14.9386 9.06892L14.9298 9.00952L14.9344 8.95018L14.9519 8.8905L14.9817 8.8301L15.023 8.76863L15.0752 8.70576L15.1379 8.64117L15.2103 8.57458L15.292 8.50572L15.3823 8.43435L15.4808 8.36024L15.5868 8.2832L15.6997 8.20305L15.8187 8.11965L15.9433 8.03288L16.0725 7.94269L16.2055 7.84903L16.3413 7.75191L16.4791 7.65139L16.6178 7.54759L16.7562 7.44066L16.8932 7.33082L17.0276 7.21835L17.1581 7.10359L17.2835 6.98693L17.4025 6.8688L17.5138 6.74971L17.6163 6.6302L17.7087 6.51084L17.79 6.39225L17.8592 6.27505L17.9153 6.15989L17.9577 6.0474L17.9857 5.93821L17.9989 5.83291L17.9971 5.73208L17.9801 5.63623L17.9481 5.54581L17.9012 5.46121L17.84 5.38276L17.7651 5.31069L17.677 5.24516L17.5768 5.18625L17.4654 5.13397L17.3437 5.08822L17.2129 5.04887L17.0742 5.01568L16.9288 4.98837L16.7777 4.96662L16.6222 4.95005L16.4633 4.93823L16.3022 4.93073L16.1399 4.92708L15.9774 4.92681L15.8154 4.92944L15.6549 4.93449L15.4965 4.94147L15.341 4.94993L15.1888 4.95941L15.0405 4.96949L14.8966 4.97973L14.7574 4.98976L14.6231 4.99918L14.494 5.00765L14.3704 5.01484L14.2523 5.02043L14.1398 5.02413L14.033 5.02566L13.9319 5.02477L13.8365 5.02121L13.7468 5.01476L13.6627 5.00521L13.5841 4.99234L13.511 4.97596L13.4433 4.9559L13.3807 4.93198L13.3233 4.90402L13.2709 4.87186L13.2233 4.83535L13.1805 4.79433L13.1422 4.74865L13.1083 4.69818L13.0787 4.64277L13.0532 4.58229L13.0316 4.51663L13.0138 4.44565L12.9995 4.36927L12.9887 4.28738L12.981 4.1999L12.9764 4.10678L12.9744 4.00797L12.975 3.90345L12.9779 3.79323L12.9828 3.67735L12.9894 3.55589L12.9974 3.42897L13.0064 3.29675L13.0163 3.15945L13.0265 3.01734L13.0367 2.87076L13.0464 2.7201L13.0554 2.56584L13.063 2.40852L13.0689 2.24877L13.0725 2.08729L13.0734 1.92485L13.0712 1.76232L13.0653 1.60062L13.0552 1.44075L13.0406 1.28378L13.021 1.13079L12.9959 0.982954L12.9651 0.841421L12.9282 0.707367L12.8851 0.581952L12.8354 0.4663L12.7791 0.36148L12.7162 0.268488L12.6468 0.188219L12.5708 0.121454L12.4886 0.0688373L12.4005 0.030864L12.3067 0.00786506L12.2078 0L12.1043 0.00725149L11.9965 0.0294248L11.8853 0.0661513L11.7711 0.116896L11.6547 0.180969L11.5366 0.25754L11.4174 0.345655L11.2979 0.444258L11.1786 0.552207L11.06 0.6683L10.9427 0.791293L10.8271 0.91992L10.7137 1.05291L10.6028 1.18902L10.4947 1.32701L10.3896 1.46571L10.2878 1.60399L10.1893 1.74077L10.0942 1.87503L10.0027 2.00584L9.91454 2.13232L9.82981 2.25365L9.74838 2.36907L9.67012 2.47788L9.59487 2.57943L9.52243 2.6731L9.4526 2.7583L9.38514 2.83448L9.31979 2.90107L9.25627 2.95753L9.19427 3.00327L9.13349 3.03771L9.07357 3.06019L9.01414 3.07001L8.95482 3.06651L8.89518 3.04998L8.83485 3.02118L8.77348 2.98076L8.71073 2.92935L8.64629 2.86753L8.57987 2.79586L8.5112 2.7149L8.44004 2.6252L8.36615 2.52734L8.28935 2.42192L8.20945 2.30958L8.12632 2.19098L8.03983 2.06687L7.94991 1.93802L7.85652 1.80529L7.75967 1.66959L7.65943 1.5319L7.55588 1.39327L7.44919 1.25479L7.33958 1.11763L7.22731 0.982996L7.11272 0.852125L6.99619 0.726282L6.87816 0.606736L6.75913 0.494742L6.63962 0.391527L6.52023 0.298264L6.40156 0.216051L6.28423 0.145895L6.16888 0.088687L6.05615 0.0451861L5.94668 0.0160029L5.84106 0.00158673L5.73985 0.00221607L5.64358 0.0179932L5.55271 0.0488427L5.46764 0.0945146L5.38869 0.154591L5.3161 0.228497L5.25005 0.315516L5.19062 0.414803L5.13781 0.525409L5.09155 0.646297L5.05169 0.776366L5.01802 0.914471L4.99026 1.05944L4.96808 1.21011L4.9511 1.36532L4.93892 1.52394L4.93109 1.6849L4.92716 1.84715L4.92664 2.00974L4.92905 2.17178L4.93392 2.33246L4.94077 2.49102L4.94913 2.64681L4.95855 2.79925L4.96859 2.94784L4.97884 3.09213L4.98889 3.23177L4.99838 3.36645L5.00694 3.49592L5.01424 3.62001L5.01997 3.73857L5.02382 3.8515L5.02554 3.95874L5.02485 4.06028L5.02151 4.15612L5.0153 4.24628L5.006 4.33083L4.9934 4.40984L4.97732 4.48339L4.95756 4.55157L4.93395 4.61452L4.90631 4.67233L4.8745 4.72515L4.83834 4.7731L4.79768 4.81632L4.75238 4.85497L4.7023 4.88919L4.64728 4.91913L4.58722 4.94496L4.52197 4.96685L4.45142 4.98496L4.37547 4.99948L4.29402 5.0106L4.20699 5.01851L4.11432 5.02342L4.01596 5.02555L3.9119 5.02515L3.80213 5.02245L3.6867 5.01773L3.56569 5.01127L3.4392 5.00337L3.30739 4.99436L3.17049 4.98457L3.02875 4.97439L2.88251 4.96418L2.73216 4.95436L2.57817 4.94536L2.42107 4.93761L2.26149 4.93158L2.10012 4.92774L1.93773 4.92656L1.77517 4.92853L1.61337 4.93414L1.45332 4.94383L1.29607 4.95808L1.14273 4.97731L0.994438 5.00192L0.852362 5.03226L0.717669 5.06863L0.591524 5.1113L0.475056 5.16045L0.369335 5.21619L0.275366 5.27855L0.194054 5.34751L0.12619 5.42294L0.0724258 5.50464L0.0332718 5.59232L0.00907326 5.68563L0 5.78415L0.00605392 5.88738L0.02705 5.99478L0.0626335 6.10577L0.112286 6.21973L0.175327 6.33604L0.250935 6.45404L0.338167 6.57311L0.435976 6.69262L0.543224 6.81199L0.658714 6.93064L0.781202 7.04806L0.909428 7.16378L1.04212 7.27739L1.17802 7.38852L1.31591 7.49687L1.4546 7.6022L1.59295 7.7043L1.72988 7.80305L1.86438 7.89837L1.9955 7.99022L2.12235 8.07862L2.24412 8.16361L2.36003 8.2453L2.4694 8.32381L2.57154 8.3993L2.66586 8.47195L2.75176 8.54198L2.82868 8.60962L2.89606 8.67513L2.95334 8.73878L2.99996 8.80089L3.03532 8.86176L3.05877 8.92173L3.06963 8.98118L3.07032 9.00007Z" fill="#ADFF00"/>
</svg>
