<svg width="16" height="16" viewBox="0 0 16 16" fill="none" xmlns="http://www.w3.org/2000/svg">
<g clip-path="url(#clip0_100_180)">
<path d="M6.06738 2.71489H7.39175V1.39053H14.6758V14.6342H7.39175V13.3098H6.06738V15.9586H16.0001V0.0661621H6.06738V2.71489Z" fill="#CBFE1C"/>
<path d="M7.39168 12.2816C11.1035 11.9082 13.1678 8.5035 13.2585 8.35024L13.4588 8.01252L13.2585 7.67447C13.1678 7.52154 11.1035 4.11686 7.39168 3.74341H6.06732C2.35531 4.11686 0.290998 7.52154 0.200304 7.67447L0 8.01252L0.200304 8.35056C0.290998 8.5035 2.35531 11.9082 6.06732 12.2816H7.39168ZM6.7295 7.35033C7.66441 7.35033 8.34115 7.70956 8.7458 8.01252C8.34115 8.31548 7.66441 8.6747 6.7295 8.6747C5.79378 8.6747 5.11672 8.31483 4.71304 8.01284C5.11737 7.70988 5.7941 7.35033 6.7295 7.35033ZM11.8899 8.01381C11.327 8.78851 9.74893 10.6401 7.39168 10.945V9.9504C9.21236 9.6974 10.187 8.47666 10.232 8.41911L10.5479 8.01252L10.232 7.60593C10.187 7.54837 9.21236 6.32764 7.39168 6.07463V5.08071C9.73939 5.3869 11.3244 7.23975 11.8899 8.01381ZM1.56897 8.01122C2.13156 7.23636 3.70958 5.38496 6.06732 5.08006V6.07463C4.24664 6.32764 3.27179 7.54837 3.22685 7.60593L2.91095 8.01252L3.22685 8.41911C3.27179 8.47666 4.24664 9.6974 6.06732 9.9504V10.9443C3.71912 10.6376 2.13383 8.78431 1.56897 8.01122Z" fill="#CBFE1C"/>
</g>
<defs>
<clipPath id="clip0_100_180">
<rect width="16" height="16" fill="white"/>
</clipPath>
</defs>
</svg>
