<svg width="14" height="10" viewBox="0 0 14 10" fill="none" xmlns="http://www.w3.org/2000/svg">
<path d="M3.16904 7.82061C6.14872 8.98346 8.68444 9.20996 11.5579 7.39996C11.5369 7.43155 10.9685 8.27365 9.47372 8.70521C9.78951 9.1368 10.2211 9.63152 10.2211 9.63152C11.179 9.63152 12.1158 9.35783 12.9263 8.83152C13.5579 8.41046 13.9158 7.68415 13.8421 6.92627C13.7158 5.63152 13.4105 4.36837 12.9369 3.15787C12.3369 1.57893 10.8948 0.484178 9.2211 0.326272C9.07372 0.31574 8.96847 0.31574 8.90532 0.31574L8.73691 0.484147C10.6632 1.03152 11.6211 1.88415 11.6422 1.91574C8.68426 0.42099 5.18954 0.399959 2.21057 1.85258C2.21057 1.85258 3.15794 0.91574 5.25266 0.42099L5.12635 0.294678C4.90529 0.294678 4.69476 0.31574 4.47372 0.347303C2.92635 0.610459 1.63163 1.67362 1.07372 3.13677C0.589506 4.39993 0.273725 5.72624 0.157944 7.07362C0.0947874 7.7894 0.431631 8.49468 1.0211 8.90521C1.80004 9.42099 2.72635 9.69468 3.66319 9.69468C3.66319 9.69468 4.04213 9.19993 4.4211 8.75783C3.00004 8.33677 2.4211 7.49468 2.41057 7.46308L2.67801 7.59965C2.83788 7.68133 3.00179 7.75533 3.16904 7.82061ZM4.8211 6.90521C4.13688 6.88415 3.60004 6.30521 3.6211 5.61046C3.64216 4.95783 4.16847 4.43152 4.8211 4.41046C5.50532 4.43152 6.04216 5.01046 6.0211 5.70521C5.98951 6.35786 5.47372 6.88418 4.8211 6.90521ZM9.11582 6.90521C8.4316 6.88415 7.89476 6.30521 7.91582 5.61046C7.93688 4.95783 8.46319 4.43152 9.11582 4.41046C9.80004 4.43152 10.3369 5.01046 10.3158 5.70521C10.2948 6.35786 9.76844 6.88418 9.11582 6.90521Z" fill="#CBFE1C"/>
</svg>
