<svg width="24" height="24" viewBox="0 0 24 24" fill="none" xmlns="http://www.w3.org/2000/svg">
<path d="M20.9375 23.375H15.25C14.6035 23.375 13.9835 23.1182 13.5264 22.6611C13.0693 22.204 12.8125 21.584 12.8125 20.9375V15.25C12.8125 14.6035 13.0693 13.9835 13.5264 13.5264C13.9835 13.0693 14.6035 12.8125 15.25 12.8125H20.9375C21.584 12.8125 22.204 13.0693 22.6611 13.5264C23.1182 13.9835 23.375 14.6035 23.375 15.25V20.9375C23.375 21.584 23.1182 22.204 22.6611 22.6611C22.204 23.1182 21.584 23.375 20.9375 23.375ZM15.25 14.4375C15.0345 14.4375 14.8278 14.5231 14.6755 14.6755C14.5231 14.8278 14.4375 15.0345 14.4375 15.25V20.9375C14.4375 21.153 14.5231 21.3597 14.6755 21.512C14.8278 21.6644 15.0345 21.75 15.25 21.75H20.9375C21.153 21.75 21.3597 21.6644 21.512 21.512C21.6644 21.3597 21.75 21.153 21.75 20.9375V15.25C21.75 15.0345 21.6644 14.8278 21.512 14.6755C21.3597 14.5231 21.153 14.4375 20.9375 14.4375H15.25Z" fill="#CBFE1C"/>
<path d="M8.75 12.8125H3.0625C1.71631 12.8125 0.625 13.9038 0.625 15.25V20.9375C0.625 22.2837 1.71631 23.375 3.0625 23.375H8.75C10.0962 23.375 11.1875 22.2837 11.1875 20.9375V15.25C11.1875 13.9038 10.0962 12.8125 8.75 12.8125Z" fill="#CBFE1C"/>
<path d="M20.9375 0.625H15.25C13.9038 0.625 12.8125 1.71631 12.8125 3.0625V8.75C12.8125 10.0962 13.9038 11.1875 15.25 11.1875H20.9375C22.2837 11.1875 23.375 10.0962 23.375 8.75V3.0625C23.375 1.71631 22.2837 0.625 20.9375 0.625Z" fill="#CBFE1C"/>
<path d="M8.75 0.625H3.0625C1.71631 0.625 0.625 1.71631 0.625 3.0625V8.75C0.625 10.0962 1.71631 11.1875 3.0625 11.1875H8.75C10.0962 11.1875 11.1875 10.0962 11.1875 8.75V3.0625C11.1875 1.71631 10.0962 0.625 8.75 0.625Z" fill="#CBFE1C"/>
</svg>
