<svg width="22" height="16" viewBox="0 0 22 16" fill="none" xmlns="http://www.w3.org/2000/svg">
<path d="M12 16H1.33333C0.533333 16 0 15.4667 0 14.6667C0 13.8667 0.533333 13.3333 1.33333 13.3333H12C12.8 13.3333 13.3333 13.8667 13.3333 14.6667C13.3333 15.4667 12.8 16 12 16Z" fill="white"/>
<path d="M20 9.33333H1.33333C0.533333 9.33333 0 8.8 0 8C0 7.2 0.533333 6.66666 1.33333 6.66666H20C20.8 6.66666 21.3333 7.2 21.3333 8C21.3333 8.8 20.8 9.33333 20 9.33333Z" fill="white"/>
<path d="M20 2.66667H9.33333C8.53333 2.66667 8 2.13333 8 1.33333C8 0.533333 8.53333 0 9.33333 0H20C20.8 0 21.3333 0.533333 21.3333 1.33333C21.3333 2.13333 20.8 2.66667 20 2.66667Z" fill="white"/>
</svg>
