<svg width="27" height="26" viewBox="0 0 27 26" fill="none" xmlns="http://www.w3.org/2000/svg">
<path fill-rule="evenodd" clip-rule="evenodd" d="M5.16927 2.16667C5.16927 3.36329 4.19923 4.33333 3.0026 4.33333C1.80598 4.33333 0.835938 3.36329 0.835938 2.16667C0.835938 0.970046 1.80598 0 3.0026 0C4.19923 0 5.16927 0.970046 5.16927 2.16667ZM5.16927 13C5.16927 14.1966 4.19923 15.1667 3.0026 15.1667C1.80598 15.1667 0.835938 14.1966 0.835938 13C0.835938 11.8034 1.80598 10.8333 3.0026 10.8333C4.19923 10.8333 5.16927 11.8034 5.16927 13ZM3.0026 26C4.19923 26 5.16927 25.0299 5.16927 23.8333C5.16927 22.6368 4.19923 21.6667 3.0026 21.6667C1.80598 21.6667 0.835938 22.6368 0.835938 23.8333C0.835938 25.0299 1.80598 26 3.0026 26ZM16.0026 13C16.0026 14.1966 15.0325 15.1667 13.8359 15.1667C12.6394 15.1667 11.6693 14.1966 11.6693 13C11.6693 11.8034 12.6394 10.8333 13.8359 10.8333C15.0325 10.8333 16.0026 11.8034 16.0026 13ZM13.8359 4.33333C15.0325 4.33333 16.0026 3.36329 16.0026 2.16667C16.0026 0.970046 15.0325 0 13.8359 0C12.6394 0 11.6693 0.970046 11.6693 2.16667C11.6693 3.36329 12.6394 4.33333 13.8359 4.33333ZM16.0026 23.8333C16.0026 25.0299 15.0325 26 13.8359 26C12.6394 26 11.6693 25.0299 11.6693 23.8333C11.6693 22.6368 12.6394 21.6667 13.8359 21.6667C15.0325 21.6667 16.0026 22.6368 16.0026 23.8333ZM24.6693 15.1667C25.8658 15.1667 26.8359 14.1966 26.8359 13C26.8359 11.8034 25.8658 10.8333 24.6693 10.8333C23.4727 10.8333 22.5026 11.8034 22.5026 13C22.5026 14.1966 23.4727 15.1667 24.6693 15.1667ZM26.8359 2.16667C26.8359 3.36329 25.8658 4.33333 24.6693 4.33333C23.4727 4.33333 22.5026 3.36329 22.5026 2.16667C22.5026 0.970046 23.4727 0 24.6693 0C25.8658 0 26.8359 0.970046 26.8359 2.16667ZM24.6693 26C25.8658 26 26.8359 25.0299 26.8359 23.8333C26.8359 22.6368 25.8658 21.6667 24.6693 21.6667C23.4727 21.6667 22.5026 22.6368 22.5026 23.8333C22.5026 25.0299 23.4727 26 24.6693 26Z" fill="#CBFE1C"/>
</svg>
