<svg width="150" height="40" viewBox="0 0 150 40" fill="none" xmlns="http://www.w3.org/2000/svg">
<path d="M37.2157 24.5826V3.38064L36.8572 0H53.4552C55.0565 0 56.3351 0.208682 57.2911 0.626045C58.2709 1.01558 58.9999 1.55815 59.4779 2.25376C59.9797 2.92154 60.3024 3.71452 60.4458 4.63272C60.6131 5.5231 60.6967 6.46912 60.6967 7.47079V10.7679C60.6967 12.1035 60.5055 13.3417 60.1231 14.4825C59.7646 15.5954 59.0835 16.4997 58.0797 17.1953C57.0999 17.8631 55.6779 18.197 53.8137 18.197H51.3401C49.8345 18.197 48.4244 18.1553 47.11 18.0718C45.8194 17.9883 44.8515 17.9188 44.2062 17.8631V24.5826H37.2157ZM44.2062 12.5209H51.6269C52.4156 12.5209 52.9653 12.34 53.276 11.9783C53.5867 11.6166 53.742 11.0323 53.742 10.2254V8.09683C53.742 7.28993 53.5986 6.70562 53.3118 6.34391C53.025 5.95437 52.4754 5.7596 51.6628 5.7596H44.2062V12.5209Z" fill="#CBFE1C"/>
<path d="M70.293 25C67.9031 25 66.0868 24.3461 64.844 23.0384C63.6251 21.7307 63.0157 19.616 63.0157 16.6945V0.0417382H70.0062V15.9432C70.0062 17.251 70.2811 18.1274 70.8308 18.5726C71.3804 19.0178 72.0616 19.2404 72.8742 19.2404H77.4987C78.2634 19.2404 78.9326 19.0178 79.5062 18.5726C80.0798 18.0996 80.3666 17.2232 80.3666 15.9432V0.0417382H87.2496V16.6945C87.2496 19.616 86.6401 21.7307 85.4213 23.0384C84.2263 24.3461 82.4219 25 80.0081 25H70.293Z" fill="#CBFE1C"/>
<path d="M90.2847 24.5826V0H106.632C108.878 0 110.515 0.528659 111.543 1.58598C112.571 2.61547 113.085 3.86756 113.085 5.34224V6.59432C113.085 7.73511 112.87 8.68114 112.439 9.43239C112.033 10.1558 111.591 10.6706 111.113 10.9766C112.164 11.3662 113.001 12.0479 113.622 13.0217C114.244 13.9677 114.554 15.2198 114.554 16.778V17.5292C114.554 18.3639 114.471 19.1987 114.303 20.0334C114.136 20.8681 113.814 21.6333 113.336 22.3289C112.881 22.9967 112.224 23.5392 111.364 23.9566C110.527 24.374 109.428 24.5826 108.066 24.5826H90.2847ZM97.2752 9.47412H104.445C105.066 9.47412 105.497 9.32109 105.736 9.01503C105.975 8.70896 106.094 8.2916 106.094 7.76294V7.34558C106.094 6.76127 105.975 6.34391 105.736 6.09349C105.497 5.84307 104.959 5.71786 104.122 5.71786H97.2752V9.47412ZM97.2752 18.8648H105.915C106.536 18.8648 106.966 18.7396 107.205 18.4891C107.444 18.2109 107.564 17.7796 107.564 17.1953V16.4441C107.564 15.9154 107.409 15.512 107.098 15.2337C106.787 14.9277 106.249 14.7746 105.485 14.7746H97.2752V18.8648Z" fill="#CBFE1C"/>
<path d="M116.361 24.5826V19.6995L130.127 5.71786H116.361V0.0417382H140.057V4.88314L125.968 18.8648H139.16L141.311 24.1235C141.311 24.2348 140.989 24.3461 140.344 24.4574C139.698 24.5409 138.587 24.5826 137.01 24.5826H116.361Z" fill="#CBFE1C"/>
<path d="M143.117 24.5826V0.0417382H150V24.5826H143.117Z" fill="#CBFE1C"/>
<path fill-rule="evenodd" clip-rule="evenodd" d="M30.6182 19.9574V1.4804H0V26.1161H12.2471V19.9574H18.371H24.4949V7.63981H6.12347V38.4334H0V32.275H12.2471V26.1161H24.4949L30.6182 19.9574Z" fill="#CBFE1C"/>
<path d="M39.3076 40C38.4405 40 37.8125 39.7872 37.4235 39.3616C37.0346 38.9361 36.8401 38.2479 36.8401 37.2971V34.8115C36.8401 33.8336 37.0548 33.1228 37.4843 32.6791C37.9138 32.2264 38.5215 32 39.3076 32H43.3673C43.9265 32 44.3519 32.0362 44.6436 32.1087C44.9434 32.172 45.0933 32.24 45.0933 32.3124L44.7165 34.0102C44.514 33.983 44.1169 33.9559 43.5254 33.9287C42.9419 33.8925 42.2045 33.8744 41.3131 33.8744H40.1827C39.8019 33.8744 39.5426 33.9559 39.4048 34.1188C39.2751 34.2728 39.2103 34.5127 39.2103 34.8387V37.1613C39.2103 37.4692 39.267 37.7091 39.3805 37.8812C39.502 38.0441 39.7694 38.1256 40.1827 38.1256H41.1673C41.54 38.1256 41.8763 38.1256 42.1761 38.1256C42.476 38.1166 42.7393 38.1075 42.9662 38.0985V37.0662L42.48 37.0798L40.8877 37.2156V35.3413H45.2878V39.4295L45.4094 39.7148C45.4094 39.7872 45.2392 39.8551 44.8989 39.9185C44.5585 39.9728 43.9832 40 43.1729 40H39.3076Z" fill="white"/>
<path d="M57.6612 40L61.2226 32.0136H64.3829L67.9322 40H65.3188L64.7232 38.5467H60.8823L60.2137 40H57.6612ZM61.5508 36.6723H64.0426L62.8635 33.7793H62.742L61.5508 36.6723Z" fill="white"/>
<path d="M80.5531 40V33.1002L80.4315 32.0136H83.373L85.5123 36.7674L87.7002 32.0136H90.4837V40H88.1621V35.4228H88.0284L87.5179 36.8896L86.6306 39.1851H84.4184L83.4946 36.8896L82.9962 35.4228H82.8747V40H80.5531Z" fill="white"/>
<path d="M103.858 40V32.0136H106.192V40H103.858Z" fill="white"/>
<path d="M119.678 40V33.1002L119.557 32.0136H121.793L125.221 35.8981L125.695 36.4958H125.829V32.0136H128.163V40H126.133L122.608 36.0747L122.134 35.4363H122.012V40H119.678Z" fill="white"/>
<path d="M143.881 40C143.014 40 142.386 39.7872 141.997 39.3616C141.608 38.9361 141.414 38.2479 141.414 37.2971V34.8115C141.414 33.8336 141.628 33.1228 142.058 32.6791C142.487 32.2264 143.095 32 143.881 32H147.941C148.5 32 148.925 32.0362 149.217 32.1087C149.517 32.172 149.667 32.24 149.667 32.3124L149.29 34.0102C149.088 33.983 148.69 33.9559 148.099 33.9287C147.515 33.8925 146.778 33.8744 145.887 33.8744H144.756C144.375 33.8744 144.116 33.9559 143.978 34.1188C143.849 34.2728 143.784 34.5127 143.784 34.8387V37.1613C143.784 37.4692 143.841 37.7091 143.954 37.8812C144.076 38.0441 144.343 38.1256 144.756 38.1256H145.741C146.114 38.1256 146.45 38.1256 146.75 38.1256C147.05 38.1166 147.313 38.1075 147.54 38.0985V37.0662L147.054 37.0798L145.461 37.2156V35.3413H149.861V39.4295L149.983 39.7148C149.983 39.7872 149.813 39.8551 149.472 39.9185C149.132 39.9728 148.557 40 147.746 40H143.881Z" fill="white"/>
</svg>
