<svg width="16" height="16" viewBox="0 0 16 16" fill="none" xmlns="http://www.w3.org/2000/svg">
<path fill-rule="evenodd" clip-rule="evenodd" d="M2.66667 1.33333C2.66667 2.06972 2.06972 2.66667 1.33333 2.66667C0.596951 2.66667 0 2.06972 0 1.33333C0 0.596951 0.596951 0 1.33333 0C2.06972 0 2.66667 0.596951 2.66667 1.33333ZM2.66667 8C2.66667 8.73636 2.06972 9.33333 1.33333 9.33333C0.596951 9.33333 0 8.73636 0 8C0 7.26364 0.596951 6.66667 1.33333 6.66667C2.06972 6.66667 2.66667 7.26364 2.66667 8ZM1.33333 16C2.06972 16 2.66667 15.403 2.66667 14.6667C2.66667 13.9303 2.06972 13.3333 1.33333 13.3333C0.596951 13.3333 0 13.9303 0 14.6667C0 15.403 0.596951 16 1.33333 16ZM9.33333 8C9.33333 8.73636 8.73636 9.33333 8 9.33333C7.26364 9.33333 6.66667 8.73636 6.66667 8C6.66667 7.26364 7.26364 6.66667 8 6.66667C8.73636 6.66667 9.33333 7.26364 9.33333 8ZM8 2.66667C8.73636 2.66667 9.33333 2.06972 9.33333 1.33333C9.33333 0.596951 8.73636 0 8 0C7.26364 0 6.66667 0.596951 6.66667 1.33333C6.66667 2.06972 7.26364 2.66667 8 2.66667ZM9.33333 14.6667C9.33333 15.403 8.73636 16 8 16C7.26364 16 6.66667 15.403 6.66667 14.6667C6.66667 13.9303 7.26364 13.3333 8 13.3333C8.73636 13.3333 9.33333 13.9303 9.33333 14.6667ZM14.6667 9.33333C15.403 9.33333 16 8.73636 16 8C16 7.26364 15.403 6.66667 14.6667 6.66667C13.9303 6.66667 13.3333 7.26364 13.3333 8C13.3333 8.73636 13.9303 9.33333 14.6667 9.33333ZM16 1.33333C16 2.06972 15.403 2.66667 14.6667 2.66667C13.9303 2.66667 13.3333 2.06972 13.3333 1.33333C13.3333 0.596951 13.9303 0 14.6667 0C15.403 0 16 0.596951 16 1.33333ZM14.6667 16C15.403 16 16 15.403 16 14.6667C16 13.9303 15.403 13.3333 14.6667 13.3333C13.9303 13.3333 13.3333 13.9303 13.3333 14.6667C13.3333 15.403 13.9303 16 14.6667 16Z" fill="#CBFE1C"/>
</svg>
