<svg width="32" height="32" viewBox="0 0 32 32" fill="none" xmlns="http://www.w3.org/2000/svg">
<path fill-rule="evenodd" clip-rule="evenodd" d="M5.33333 2.66667C5.33333 4.13943 4.13943 5.33333 2.66667 5.33333C1.1939 5.33333 0 4.13943 0 2.66667C0 1.1939 1.1939 0 2.66667 0C4.13943 0 5.33333 1.1939 5.33333 2.66667ZM5.33333 16C5.33333 17.4727 4.13943 18.6667 2.66667 18.6667C1.1939 18.6667 0 17.4727 0 16C0 14.5273 1.1939 13.3333 2.66667 13.3333C4.13943 13.3333 5.33333 14.5273 5.33333 16ZM2.66667 32C4.13943 32 5.33333 30.806 5.33333 29.3333C5.33333 27.8606 4.13943 26.6667 2.66667 26.6667C1.1939 26.6667 0 27.8606 0 29.3333C0 30.806 1.1939 32 2.66667 32ZM18.6667 16C18.6667 17.4727 17.4727 18.6667 16 18.6667C14.5273 18.6667 13.3333 17.4727 13.3333 16C13.3333 14.5273 14.5273 13.3333 16 13.3333C17.4727 13.3333 18.6667 14.5273 18.6667 16ZM16 5.33333C17.4727 5.33333 18.6667 4.13943 18.6667 2.66667C18.6667 1.1939 17.4727 0 16 0C14.5273 0 13.3333 1.1939 13.3333 2.66667C13.3333 4.13943 14.5273 5.33333 16 5.33333ZM18.6667 29.3333C18.6667 30.806 17.4727 32 16 32C14.5273 32 13.3333 30.806 13.3333 29.3333C13.3333 27.8606 14.5273 26.6667 16 26.6667C17.4727 26.6667 18.6667 27.8606 18.6667 29.3333ZM29.3333 18.6667C30.806 18.6667 32 17.4727 32 16C32 14.5273 30.806 13.3333 29.3333 13.3333C27.8606 13.3333 26.6667 14.5273 26.6667 16C26.6667 17.4727 27.8606 18.6667 29.3333 18.6667ZM32 2.66667C32 4.13943 30.806 5.33333 29.3333 5.33333C27.8606 5.33333 26.6667 4.13943 26.6667 2.66667C26.6667 1.1939 27.8606 0 29.3333 0C30.806 0 32 1.1939 32 2.66667ZM29.3333 32C30.806 32 32 30.806 32 29.3333C32 27.8606 30.806 26.6667 29.3333 26.6667C27.8606 26.6667 26.6667 27.8606 26.6667 29.3333C26.6667 30.806 27.8606 32 29.3333 32Z" fill="white"/>
</svg>
