<svg width="175" height="40" viewBox="0 0 175 40" fill="none" xmlns="http://www.w3.org/2000/svg">
<path d="M43.4182 24.5826V3.38064L43 0H62.3644C64.2325 0 65.7242 0.208682 66.8395 0.626045C67.9827 1.01558 68.8331 1.55815 69.3908 2.25376C69.9763 2.92154 70.3527 3.71452 70.52 4.63272C70.7152 5.5231 70.8128 6.46912 70.8128 7.47079V10.7679C70.8128 12.1035 70.5897 13.3417 70.1436 14.4825C69.7254 15.5954 68.9307 16.4997 67.7597 17.1953C66.6165 17.8631 64.9575 18.197 62.7826 18.197H59.8968C58.1402 18.197 56.4951 18.1553 54.9616 18.0718C53.4559 17.9883 52.3267 17.9188 51.5739 17.8631V24.5826H43.4182ZM51.5739 12.5209H60.2314C61.1515 12.5209 61.7928 12.34 62.1553 11.9783C62.5177 11.6166 62.699 11.0323 62.699 10.2254V8.09683C62.699 7.28993 62.5317 6.70562 62.1971 6.34391C61.8625 5.95437 61.2212 5.7596 60.2732 5.7596H51.5739V12.5209Z" fill="#CBFE1C"/>
<path d="M82.0085 25C79.2202 25 77.1012 24.3461 75.6513 23.0384C74.2293 21.7307 73.5183 19.616 73.5183 16.6945V0.0417382H81.6739V15.9432C81.6739 17.251 81.9945 18.1274 82.6358 18.5726C83.2771 19.0178 84.0718 19.2404 85.0198 19.2404H90.4151C91.3073 19.2404 92.088 19.0178 92.7572 18.5726C93.4264 18.0996 93.761 17.2232 93.761 15.9432V0.0417382H101.791V16.6945C101.791 19.616 101.08 21.7307 99.6581 23.0384C98.264 24.3461 96.1589 25 93.3427 25H82.0085Z" fill="#CBFE1C"/>
<path d="M105.332 24.5826V0H124.404C127.025 0 128.935 0.528659 130.134 1.58598C131.333 2.61547 131.932 3.86756 131.932 5.34224V6.59432C131.932 7.73512 131.681 8.68114 131.179 9.43239C130.705 10.1558 130.189 10.6706 129.632 10.9766C130.859 11.3662 131.834 12.0479 132.559 13.0217C133.284 13.9677 133.647 15.2198 133.647 16.778V17.5292C133.647 18.3639 133.549 19.1987 133.354 20.0334C133.159 20.8681 132.782 21.6333 132.225 22.3289C131.695 22.9967 130.928 23.5392 129.924 23.9566C128.949 24.374 127.666 24.5826 126.077 24.5826H105.332ZM113.488 9.47412H121.852C122.577 9.47412 123.079 9.32109 123.358 9.01503C123.637 8.70896 123.776 8.2916 123.776 7.76294V7.34558C123.776 6.76127 123.637 6.34391 123.358 6.09349C123.079 5.84307 122.452 5.71786 121.476 5.71786H113.488V9.47412ZM113.488 18.8648H123.567C124.292 18.8648 124.794 18.7396 125.073 18.4891C125.352 18.2109 125.491 17.7796 125.491 17.1953V16.4441C125.491 15.9154 125.31 15.512 124.947 15.2337C124.585 14.9277 123.958 14.7746 123.065 14.7746H113.488V18.8648Z" fill="#CBFE1C"/>
<path d="M135.754 24.5826V19.6995L151.814 5.71786H135.754V0.0417382H163.399V4.88314L146.963 18.8648H162.354L164.863 24.1235C164.863 24.2348 164.487 24.3461 163.734 24.4574C162.981 24.5409 161.685 24.5826 159.844 24.5826H135.754Z" fill="#CBFE1C"/>
<path d="M166.97 24.5826V0.0417382H175V24.5826H166.97Z" fill="#CBFE1C"/>
<path fill-rule="evenodd" clip-rule="evenodd" d="M33 20.0005V0H0V26.667H13.1998V20.0005H19.8H26.4004V6.66729H6.59982V40H0V33.3339H13.1998V26.667H26.4004L33 20.0005Z" fill="#CBFE1C"/>
<path d="M45.8587 40C44.8471 40 44.1144 39.7872 43.6607 39.3616C43.2069 38.9361 42.98 38.2479 42.98 37.2971V34.8115C42.98 33.8336 43.2305 33.1228 43.7316 32.6791C44.2326 32.2264 44.9417 32 45.8587 32H50.5951C51.2474 32 51.7438 32.0362 52.0841 32.1087C52.4339 32.172 52.6088 32.24 52.6088 32.3124L52.1692 34.0102C51.9328 33.983 51.4696 33.9559 50.7795 33.9287C50.0988 33.8925 49.2385 33.8744 48.1985 33.8744H46.8797C46.4354 33.8744 46.1329 33.9559 45.9721 34.1188C45.8209 34.2728 45.7452 34.5127 45.7452 34.8387V37.1613C45.7452 37.4692 45.8114 37.7091 45.9438 37.8812C46.0856 38.0441 46.3976 38.1256 46.8797 38.1256H48.0284C48.4632 38.1256 48.8556 38.1256 49.2054 38.1256C49.5552 38.1166 49.8624 38.1075 50.1271 38.0985V37.0662L49.5599 37.0798L47.7022 37.2156V35.3413H52.8357V39.4295L52.9775 39.7148C52.9775 39.7872 52.779 39.8551 52.3819 39.9185C51.9848 39.9728 51.3136 40 50.3682 40H45.8587Z" fill="white"/>
<path d="M67.2712 40L71.4262 32.0136H75.1133L79.2541 40H76.2052L75.5103 38.5467H71.0292L70.2492 40H67.2712ZM71.8091 36.6723H74.7162L73.3407 33.7793H73.1988L71.8091 36.6723Z" fill="white"/>
<path d="M93.9785 40V33.1002L93.8367 32.0136H97.2684L99.7643 36.7674L102.317 32.0136H105.564V40H102.856V35.4228H102.7L102.104 36.8896L101.069 39.1851H98.488L97.4102 36.8896L96.8288 35.4228H96.687V40H93.9785Z" fill="white"/>
<path d="M121.167 40V32.0136H123.89V40H121.167Z" fill="white"/>
<path d="M139.625 40V33.1002L139.483 32.0136H142.092L146.091 35.8981L146.644 36.4958H146.8V32.0136H149.523V40H147.155L143.042 36.0747L142.489 35.4363H142.347V40H139.625Z" fill="white"/>
<path d="M167.861 40C166.85 40 166.117 39.7872 165.663 39.3616C165.209 38.9361 164.982 38.2479 164.982 37.2971V34.8115C164.982 33.8336 165.233 33.1228 165.734 32.6791C166.235 32.2264 166.944 32 167.861 32H172.598C173.25 32 173.746 32.0362 174.087 32.1087C174.436 32.172 174.611 32.24 174.611 32.3124L174.172 34.0102C173.935 33.983 173.472 33.9559 172.782 33.9287C172.101 33.8925 171.241 33.8744 170.201 33.8744H168.882C168.438 33.8744 168.135 33.9559 167.975 34.1188C167.823 34.2728 167.748 34.5127 167.748 34.8387V37.1613C167.748 37.4692 167.814 37.7091 167.946 37.8812C168.088 38.0441 168.4 38.1256 168.882 38.1256H170.031C170.466 38.1256 170.858 38.1256 171.208 38.1256C171.558 38.1166 171.865 38.1075 172.13 38.0985V37.0662L171.562 37.0798L169.705 37.2156V35.3413H174.838V39.4295L174.98 39.7148C174.98 39.7872 174.781 39.8551 174.384 39.9185C173.987 39.9728 173.316 40 172.371 40H167.861Z" fill="white"/>
</svg>
