<svg width="18" height="17" viewBox="0 0 18 17" fill="none" xmlns="http://www.w3.org/2000/svg">
<path fill-rule="evenodd" clip-rule="evenodd" d="M3.07032 8.50007L3.06363 8.55614L3.04411 8.61258L3.01247 8.66977L2.96937 8.72801L2.91542 8.78764L2.8512 8.84892L2.77726 8.91213L2.69416 8.97753L2.60247 9.04533L2.50275 9.11575L2.39561 9.18897L2.28171 9.26515L2.16173 9.34442L2.03641 9.42687L1.90656 9.51258L1.77303 9.60156L1.63676 9.6938L1.49875 9.78923L1.36005 9.88775L1.22178 9.98919L1.08512 10.0933L0.951269 10.1999L0.821486 10.3086L0.697031 10.4191L0.579176 10.5308L0.46917 10.6434L0.368227 10.7563L0.277508 10.8689L0.19809 10.9808L0.130949 11.0912L0.0769539 11.1996L0.0368233 11.3054L0.0111332 11.4079L0.000291824 11.5067L0.00453758 11.6012L0.0239296 11.691L0.0583496 11.7755L0.107506 11.8545L0.170944 11.9277L0.248053 11.9948L0.338081 12.0557L0.440163 12.1103L0.553324 12.1587L0.676506 12.2009L0.808599 12.2371L0.948452 12.2676L1.09489 12.2925L1.24675 12.3122L1.40288 12.3272L1.56215 12.3376L1.7235 12.3441L1.88592 12.347L2.04846 12.3468L2.21025 12.3439L2.37048 12.3389L2.52843 12.332L2.68348 12.3238L2.83504 12.3148L2.98264 12.3052L3.12585 12.2955L3.26433 12.2861L3.39778 12.2773L3.52598 12.2695L3.64876 12.263L3.76598 12.2579L3.87755 12.2548L3.98344 12.2537L4.08361 12.2549L4.17809 12.2587L4.26691 12.2652L4.35013 12.2747L4.42782 12.2874L4.50008 12.3034L4.567 12.3229L4.62871 12.3461L4.68531 12.3731L4.73695 12.4041L4.78376 12.4393L4.82588 12.4787L4.86346 12.5226L4.89664 12.571L4.92559 12.6241L4.95046 12.682L4.97143 12.7448L4.98867 12.8126L5.00235 12.8856L5.01268 12.9637L5.01986 13.0472L5.02409 13.136L5.02559 13.2302L5.02462 13.3298L5.02141 13.4347L5.01625 13.545L5.00941 13.6605L5.00122 13.7812L4.99199 13.9069L4.98208 14.0373L4.97185 14.1722L4.9617 14.3113L4.95203 14.4541L4.94329 14.6003L4.93591 14.7493L4.93036 14.9005L4.92711 15.0532L4.92664 15.2067L4.92944 15.3601L4.93598 15.5126L4.94672 15.6632L4.96212 15.811L4.9826 15.9548L5.00855 16.0935L5.0403 16.2261L5.07816 16.3515L5.12237 16.4686L5.17308 16.5762L5.2304 16.6735L5.29435 16.7595L5.36487 16.8333L5.44181 16.8943L5.52497 16.9418L5.61403 16.9754L5.70863 16.9949L5.80832 17L5.91259 16.9909L6.0209 16.9677L6.13266 16.9309L6.24724 16.8809L6.36401 16.8185L6.48232 16.7444L6.60155 16.6595L6.72109 16.5649L6.84033 16.4616L6.95873 16.3509L7.07579 16.2338L7.19104 16.1116L7.30409 15.9854L7.41458 15.8565L7.52223 15.726L7.62679 15.595L7.72811 15.4646L7.82605 15.3357L7.92054 15.2094L8.01156 15.0864L8.09914 14.9677L8.18333 14.8539L8.26425 14.7459L8.34202 14.6442L8.41681 14.5494L8.48881 14.4622L8.55825 14.383L8.62536 14.3125L8.6904 14.2511L8.75365 14.1993L8.81543 14.1578L8.87606 14.127L8.93587 14.1077L8.99526 14.1004L9.05461 14.1057L9.11433 14.1232L9.1748 14.1522L9.23637 14.192L9.29937 14.2422L9.36411 14.3021L9.43087 14.3712L9.49992 14.449L9.5715 14.535L9.64583 14.6286L9.72311 14.7292L9.80352 14.8363L9.88719 14.9492L9.97422 15.0672L10.0647 15.1895L10.1586 15.3154L10.256 15.4439L10.3568 15.5742L10.4609 15.7051L10.568 15.8358L10.6781 15.965L10.7908 16.0917L10.9057 16.2146L11.0225 16.3326L11.1407 16.4445L11.2598 16.549L11.3794 16.645L11.4987 16.7315L11.6172 16.8074L11.7342 16.8718L11.8492 16.9238L11.9615 16.9628L12.0704 16.9881L12.1753 16.9995L12.2758 16.9966L12.3712 16.9795L12.4612 16.9481L12.5453 16.9027L12.6233 16.8439L12.6948 16.7721L12.7598 16.688L12.8182 16.5924L12.87 16.4864L12.9152 16.3707L12.954 16.2466L12.9867 16.1151L13.0136 15.9772L13.0349 15.8342L13.0511 15.687L13.0626 15.5368L13.0697 15.3845L13.0731 15.2311L13.0731 15.0776L13.0703 14.9247L13.0651 14.7733L13.0579 14.6239L13.0494 14.4772L13.0398 14.3338L13.0297 14.1941L13.0195 14.0585L13.0095 13.9273L13.0001 13.8009L12.9918 13.6794L12.9847 13.5631L12.9792 13.4519L12.9757 13.3461L12.9744 13.2457L12.9755 13.1507L12.9792 13.061L12.9859 12.9767L12.9957 12.8977L13.0089 12.8239L13.0255 12.7552L13.0459 12.6916L13.0701 12.633L13.0984 12.5791L13.1309 12.53L13.1678 12.4854L13.2092 12.4453L13.2552 12.4095L13.3061 12.3778L13.3619 12.3501L13.4228 12.3264L13.4889 12.3063L13.5603 12.2897L13.6371 12.2765L13.7194 12.2665L13.8073 12.2595L13.9009 12.2553L14.0002 12.2537L14.1052 12.2544L14.2158 12.2573L14.3322 12.262L14.4541 12.2684L14.5814 12.276L14.714 12.2847L14.8517 12.294L14.9942 12.3037L15.1411 12.3133L15.2921 12.3224L15.4466 12.3308L15.6042 12.3379L15.7641 12.3433L15.9257 12.3465L16.0881 12.3472L16.2506 12.3448L16.4122 12.3389L16.5719 12.3291L16.7286 12.3149L16.8812 12.296L17.0286 12.2719L17.1696 12.2424L17.303 12.2071L17.4277 12.1658L17.5425 12.1184L17.6464 12.0648L17.7384 12.0049L17.8176 11.9388L17.8833 11.8666L17.9348 11.7885L17.9715 11.7048L17.9933 11.6159L18 11.5221L17.9916 11.4239L17.9682 11.3219L17.9303 11.2166L17.8785 11.1086L17.8134 10.9984L17.7359 10.8868L17.6469 10.7742L17.5475 10.6613L17.4389 10.5487L17.3222 10.4368L17.1987 10.3261L17.0697 10.2171L16.9364 10.1102L16.8001 10.0056L16.662 9.90372L16.5233 9.80472L16.3851 9.70879L16.2485 9.61603L16.1144 9.52653L15.9839 9.4403L15.8578 9.35734L15.737 9.27757L15.622 9.2009L15.5138 9.12722L15.4128 9.05637L15.3198 8.98816L15.2353 8.9224L15.1599 8.85885L15.0941 8.79728L15.0385 8.73741L14.9936 8.67896L14.9601 8.62163L14.9386 8.56509L14.9298 8.50899L14.9344 8.45295L14.9519 8.39658L14.9817 8.33954L15.023 8.28148L15.0752 8.2221L15.1379 8.1611L15.2103 8.09821L15.292 8.03318L15.3823 7.96577L15.4808 7.89578L15.5868 7.82302L15.6997 7.74732L15.8187 7.66855L15.9433 7.58661L16.0725 7.50143L16.2055 7.41297L16.3413 7.32125L16.4791 7.22631L16.6178 7.12828L16.7562 7.02729L16.8932 6.92355L17.0276 6.81733L17.1581 6.70895L17.2835 6.59876L17.4025 6.4872L17.5138 6.37472L17.6163 6.26185L17.7087 6.14912L17.79 6.03712L17.8592 5.92643L17.9153 5.81767L17.9577 5.71143L17.9857 5.60831L17.9989 5.50886L17.9971 5.41363L17.9801 5.32311L17.9481 5.23771L17.9012 5.15781L17.84 5.08371L17.7651 5.01565L17.677 4.95376L17.5768 4.89813L17.4654 4.84875L17.3437 4.80555L17.2129 4.76837L17.0742 4.73703L16.9288 4.71124L16.7777 4.6907L16.6222 4.67504L16.4633 4.66388L16.3022 4.6568L16.1399 4.65335L15.9774 4.6531L15.8154 4.65558L15.6549 4.66035L15.4965 4.66694L15.341 4.67493L15.1888 4.68389L15.0405 4.6934L14.8966 4.70308L14.7574 4.71255L14.6231 4.72145L14.494 4.72945L14.3704 4.73624L14.2523 4.74152L14.1398 4.74501L14.033 4.74646L13.9319 4.74561L13.8365 4.74226L13.7468 4.73616L13.6627 4.72714L13.5841 4.71498L13.511 4.69952L13.4433 4.68058L13.3807 4.65798L13.3233 4.63157L13.2709 4.6012L13.2233 4.56672L13.1805 4.52798L13.1422 4.48484L13.1083 4.43717L13.0787 4.38484L13.0532 4.32772L13.0316 4.2657L13.0138 4.19867L12.9995 4.12653L12.9887 4.04919L12.981 3.96658L12.9764 3.87863L12.9744 3.7853L12.975 3.68659L12.9779 3.58249L12.9828 3.47305L12.9894 3.35834L12.9974 3.23847L13.0064 3.1136L13.0163 2.98393L13.0265 2.84971L13.0367 2.71127L13.0464 2.56898L13.0554 2.42329L13.063 2.27471L13.0689 2.12384L13.0725 1.97133L13.0734 1.81792L13.0712 1.66441L13.0653 1.5117L13.0552 1.36071L13.0406 1.21246L13.021 1.06797L12.9959 0.928345L12.9651 0.794675L12.9282 0.668069L12.8851 0.549621L12.8354 0.440394L12.7791 0.341398L12.7162 0.253572L12.6468 0.177762L12.5708 0.114706L12.4886 0.065013L12.4005 0.0291493L12.3067 0.00742811L12.2078 0L12.1043 0.00684863L11.9965 0.0277901L11.8853 0.0624762L11.7711 0.110402L11.6547 0.170915L11.5366 0.243232L11.4174 0.326452L11.2979 0.419577L11.1786 0.521529L11.06 0.631172L10.9427 0.747332L10.8271 0.868813L10.7137 0.994418L10.6028 1.12296L10.4947 1.25329L10.3896 1.38429L10.2878 1.51488L10.1893 1.64406L10.0942 1.77086L10.0027 1.89441L9.91454 2.01386L9.82981 2.12845L9.74838 2.23745L9.67012 2.34022L9.59487 2.43613L9.52243 2.52459L9.4526 2.60506L9.38514 2.67701L9.31979 2.7399L9.25627 2.79322L9.19427 2.83643L9.13349 2.86895L9.07357 2.89018L9.01414 2.89945L8.95482 2.89614L8.89518 2.88054L8.83485 2.85333L8.77348 2.81516L8.71073 2.76661L8.64629 2.70822L8.57987 2.64053L8.5112 2.56407L8.44004 2.47936L8.36615 2.38694L8.28935 2.28737L8.20945 2.18127L8.12632 2.06926L8.03983 1.95204L7.94991 1.83035L7.85652 1.705L7.75967 1.57684L7.65943 1.4468L7.55588 1.31586L7.44919 1.18508L7.33958 1.05554L7.22731 0.928385L7.11272 0.804785L6.99619 0.685933L6.87816 0.573028L6.75913 0.467257L6.63962 0.369776L6.52023 0.281694L6.40156 0.204048L6.28423 0.13779L6.16888 0.0837599L6.05615 0.0426758L5.94668 0.0151139L5.84106 0.00149858L5.73985 0.00209295L5.64358 0.0169936L5.55271 0.0461292L5.46764 0.0892638L5.38869 0.146003L5.3161 0.215803L5.25005 0.297987L5.19062 0.391758L5.13781 0.496219L5.09155 0.610391L5.05169 0.733234L5.01802 0.863667L4.99026 1.00059L4.96808 1.14289L4.9511 1.28947L4.93892 1.43928L4.93109 1.59129L4.92716 1.74453L4.92664 1.89809L4.92905 2.05113L4.93392 2.20287L4.94077 2.35263L4.94913 2.49977L4.95855 2.64374L4.96859 2.78407L4.97884 2.92035L4.98889 3.05223L4.99838 3.17942L5.00694 3.3017L5.01424 3.4189L5.01997 3.53087L5.02382 3.63752L5.02554 3.73881L5.02485 3.83471L5.02151 3.92522L5.0153 4.01038L5.006 4.09023L4.9934 4.16485L4.97732 4.23431L4.95756 4.29871L4.93395 4.35815L4.90631 4.41276L4.8745 4.46264L4.83834 4.50792L4.79768 4.54875L4.75238 4.58525L4.7023 4.61757L4.64728 4.64585L4.58722 4.67024L4.52197 4.69091L4.45142 4.70802L4.37547 4.72173L4.29402 4.73223L4.20699 4.7397L4.11432 4.74434L4.01596 4.74635L3.9119 4.74597L3.80213 4.74342L3.6867 4.73897L3.56569 4.73286L3.4392 4.7254L3.30739 4.71689L3.17049 4.70765L3.02875 4.69803L2.88251 4.68839L2.73216 4.67912L2.57817 4.67061L2.42107 4.6633L2.26149 4.6576L2.10012 4.65397L1.93773 4.65286L1.77517 4.65473L1.61337 4.66002L1.45332 4.66918L1.29607 4.68263L1.14273 4.70079L0.994438 4.72403L0.852362 4.75269L0.717669 4.78704L0.591524 4.82734L0.475056 4.87376L0.369335 4.9264L0.275366 4.9853L0.194054 5.05043L0.12619 5.12167L0.0724258 5.19883L0.0332718 5.28164L0.00907326 5.36977L0 5.46281L0.00605392 5.5603L0.02705 5.66173L0.0626335 5.76656L0.112286 5.87419L0.175327 5.98403L0.250935 6.09548L0.338167 6.20794L0.435976 6.32081L0.543224 6.43354L0.658714 6.5456L0.781202 6.6565L0.909428 6.7658L1.04212 6.87309L1.17802 6.97805L1.31591 7.08038L1.4546 7.17985L1.59295 7.27628L1.72988 7.36955L1.86438 7.45957L1.9955 7.54632L2.12235 7.6298L2.24412 7.71008L2.36003 7.78723L2.4694 7.86138L2.57154 7.93267L2.66586 8.00128L2.75176 8.06742L2.82868 8.1313L2.89606 8.19318L2.95334 8.2533L2.99996 8.31195L3.03532 8.36944L3.05877 8.42608L3.06963 8.48223L3.07032 8.50007Z" fill="#CBFE1C"/>
</svg>
